<?xml version="1.0"?>
<!-- Generated by Vecart v. 1.0.0
     https://github.com/DavidJilg/Vecart
     https://david-jilg.com/vecart

Config:
{
    "artworkHeight": 92,
    "artworkWidth": 63,
    "combineShapes": true,
    "combineShapesIterations": 5,
    "combineShapesTolerance": 0.5,
    "configInOutput": true,
    "darknessThreshold": 18,
    "debug": false,
    "highPrecisionShapePositioning": false,
    "inputPath": "",
    "outputDpi": 72,
    "outputPath": "/static/provedSVG/polygons.svg",
    "parallelRoutines": 1,
    "processingDpi": 10,
    "quadrantHeight": 5,
    "quadrantWidth": 5,
    "randomSeed": 1701,
    "reverseShapeOrder": false,
    "shapeAngleDeviationRange": 180,
    "shapeAngleDeviationStep": 30,
    "shapeDarknessFactor": 40,
    "shapeRefinement": true,
    "shapeRefinementIterations": 1,
    "shapeRefinementPercentage": 0.2,
    "shapes": [
        {
            "points": [
                [
                    -1,
                    0
                ],
                [
                    -0.5,
                    1
                ],
                [
                    0.5,
                    1
                ],
                [
                    1,
                    0
                ]
            ],
            "type": "polygon"
        },
        {
            "points": [
                [
                    -2,
                    0
                ],
                [
                    -1,
                    2
                ],
                [
                    1,
                    2
                ],
                [
                    2,
                    0
                ]
            ],
            "type": "polygon"
        },
        {
            "points": [
                [
                    -3,
                    0
                ],
                [
                    -2,
                    3
                ],
                [
                    2,
                    3
                ],
                [
                    3,
                    0
                ]
            ],
            "type": "polygon"
        }
    ],
    "smoothEdges": true,
    "strokeColor": "black",
    "strokeWidth": 0.75,
    "timeout": 30,
    "whitePunishmentBoundry": 5,
    "whitePunishmentValue": 0.85
}
-->
<svg viewBox="0 0 180.00 252.00" xmlns="http://www.w3.org/2000/svg">
<polygon  points="28.034646 26.730709 22.365354 29.565354 22.365354 35.234646 28.034646 38.069291" style="stroke:black; fill:none; stroke-width: 0.75px" />
<polygon  points="29.565354 38.069291 35.234646 35.234646 35.234646 29.565354 29.565354 26.730709" style="stroke:black; fill:none; stroke-width: 0.75px" />
<polygon  points="62.730709 29.565354 65.565354 35.234646 71.234646 35.234646 74.069291 29.565354" style="stroke:black; fill:none; stroke-width: 0.75px" />
<polygon  points="52.469291 28.034646 49.634646 22.365354 43.965354 22.365354 41.130709 28.034646" style="stroke:black; fill:none; stroke-width: 0.75px" />
<polygon  points="52.721683 9.736828 46.774380 16.443672 52.443672 26.263172 61.225620 24.466079" style="stroke:black; fill:none; stroke-width: 0.75px" />
<polygon  points="52.936828 12.078317 59.643672 18.025620 69.463172 12.356328 67.666079 3.574380" style="stroke:black; fill:none; stroke-width: 0.75px" />
<polygon  points="45.269291 20.834646 42.434646 15.165354 36.765354 15.165354 33.930709 20.834646" style="stroke:black; fill:none; stroke-width: 0.75px" />
<polygon  points="74.069291 28.034646 71.234646 22.365354 65.565354 22.365354 62.730709 28.034646" style="stroke:black; fill:none; stroke-width: 0.75px" />
<polygon  points="51.165354 38.069291 56.834646 35.234646 56.834646 29.565354 51.165354 26.730709" style="stroke:black; fill:none; stroke-width: 0.75px" />
<polygon  points="56.619141 15.519865 62.946214 15.899636 65.780859 10.989885 62.288432 5.700364" style="stroke:black; fill:none; stroke-width: 0.75px" />
<polygon  points="74.321683 9.736828 68.374380 16.443672 74.043672 26.263172 82.825620 24.466079" style="stroke:black; fill:none; stroke-width: 0.75px" />
<polygon  points="99.819141 22.719865 106.146214 23.099636 108.980859 18.189885 105.488432 12.900364" style="stroke:black; fill:none; stroke-width: 0.75px" />
<polygon  points="91.088432 30.299636 94.580859 25.010115 91.746214 20.100364 85.419141 20.480135" style="stroke:black; fill:none; stroke-width: 0.75px" />
<polygon  points="112.663172 31.121683 105.956328 25.174380 96.136828 30.843672 97.933921 39.625620" style="stroke:black; fill:none; stroke-width: 0.75px" />
<polygon  points="72.765354 23.669291 78.434646 20.834646 78.434646 15.165354 72.765354 12.330709" style="stroke:black; fill:none; stroke-width: 0.75px" />
<polygon  points="88.469291 35.234646 85.634646 29.565354 79.965354 29.565354 77.130709 35.234646" style="stroke:black; fill:none; stroke-width: 0.75px" />
<polygon  points="91.530709 7.965354 94.365354 13.634646 100.034646 13.634646 102.869291 7.965354" style="stroke:black; fill:none; stroke-width: 0.75px" />
<polygon  points="87.519865 15.380859 87.899636 9.053786 82.989885 6.219141 77.700364 9.711568" style="stroke:black; fill:none; stroke-width: 0.75px" />
<polygon  points="97.174380 38.866079 105.956328 40.663172 111.625620 30.843672 105.678317 24.136828" style="stroke:black; fill:none; stroke-width: 0.75px" />
<polygon  points="95.669291 6.434646 92.834646 0.765354 87.165354 0.765354 84.330709 6.434646" style="stroke:black; fill:none; stroke-width: 0.75px" />
<polygon  points="105.678317 40.663172 111.625620 33.956328 105.956328 24.136828 97.174380 25.933921" style="stroke:black; fill:none; stroke-width: 0.75px" />
<polygon  points="81.521683 16.936828 75.574380 23.643672 81.243672 33.463172 90.025620 31.666079" style="stroke:black; fill:none; stroke-width: 0.75px" />
<polygon  points="92.100364 19.088432 97.389885 22.580859 102.299636 19.746214 101.919865 13.419141" style="stroke:black; fill:none; stroke-width: 0.75px" />
<polygon  points="115.965354 38.069291 121.634646 35.234646 121.634646 29.565354 115.965354 26.730709" style="stroke:black; fill:none; stroke-width: 0.75px" />
<polygon  points="134.730709 22.365354 137.565354 28.034646 143.234646 28.034646 146.069291 22.365354" style="stroke:black; fill:none; stroke-width: 0.75px" />
<polygon  points="146.866079 39.625620 148.663172 30.843672 138.843672 25.174380 132.136828 31.121683" style="stroke:black; fill:none; stroke-width: 0.75px" />
<polygon  points="108.765354 16.469291 114.434646 13.634646 114.434646 7.965354 108.765354 5.130709" style="stroke:black; fill:none; stroke-width: 0.75px" />
<polygon  points="121.634646 12.330709 115.965354 15.165354 115.965354 20.834646 121.634646 23.669291" style="stroke:black; fill:none; stroke-width: 0.75px" />
<polygon  points="123.165354 23.669291 128.834646 20.834646 128.834646 15.165354 123.165354 12.330709" style="stroke:black; fill:none; stroke-width: 0.75px" />
<polygon  points="134.730709 29.565354 137.565354 35.234646 143.234646 35.234646 146.069291 29.565354" style="stroke:black; fill:none; stroke-width: 0.75px" />
<polygon  points="138.869291 20.834646 136.034646 15.165354 130.365354 15.165354 127.530709 20.834646" style="stroke:black; fill:none; stroke-width: 0.75px" />
<polygon  points="163.530709 15.165354 166.365354 20.834646 172.034646 20.834646 174.869291 15.165354" style="stroke:black; fill:none; stroke-width: 0.75px" />
<polygon  points="26.288432 59.099636 29.780859 53.810115 26.946214 48.900364 20.619141 49.280135" style="stroke:black; fill:none; stroke-width: 0.75px" />
<polyline points="-0.000000 69.703937 0.765354 71.234646 0.765354 71.234646 6.434646 71.234646 6.434646 71.234646 9.269291 65.565354 9.269291 65.565354 -0.000000 65.565354" style="stroke:black; fill:none; stroke-width: 0.75px" />
<polygon  points="13.419141 44.319865 19.746214 44.699636 22.580859 39.789885 19.088432 34.500364" style="stroke:black; fill:none; stroke-width: 0.75px" />
<polygon  points="27.819141 65.919865 34.146214 66.299636 36.980859 61.389885 33.488432 56.100364" style="stroke:black; fill:none; stroke-width: 0.75px" />
<polygon  points="23.669291 71.234646 20.834646 65.565354 15.165354 65.565354 12.330709 71.234646" style="stroke:black; fill:none; stroke-width: 0.75px" />
<polygon  points="12.330709 58.365354 15.165354 64.034646 20.834646 64.034646 23.669291 58.365354" style="stroke:black; fill:none; stroke-width: 0.75px" />
<polygon  points="12.900364 55.088432 18.189885 58.580859 23.099636 55.746214 22.719865 49.419141" style="stroke:black; fill:none; stroke-width: 0.75px" />
<polygon  points="64.034646 48.330709 58.365354 51.165354 58.365354 56.834646 64.034646 59.669291" style="stroke:black; fill:none; stroke-width: 0.75px" />
<polygon  points="48.078317 76.663172 54.025620 69.956328 48.356328 60.136828 39.574380 61.933921" style="stroke:black; fill:none; stroke-width: 0.75px" />
<polygon  points="55.278317 62.263172 61.225620 55.556328 55.556328 45.736828 46.774380 47.533921" style="stroke:black; fill:none; stroke-width: 0.75px" />
<polygon  points="68.425620 61.933921 59.643672 60.136828 53.974380 69.956328 59.921683 76.663172" style="stroke:black; fill:none; stroke-width: 0.75px" />
<polygon  points="51.899636 67.311568 46.610115 63.819141 41.700364 66.653786 42.080135 72.980859" style="stroke:black; fill:none; stroke-width: 0.75px" />
<polygon  points="32.374380 46.066079 41.156328 47.863172 46.825620 38.043672 40.878317 31.336828" style="stroke:black; fill:none; stroke-width: 0.75px" />
<polygon  points="48.330709 51.165354 51.165354 56.834646 56.834646 56.834646 59.669291 51.165354" style="stroke:black; fill:none; stroke-width: 0.75px" />
<polygon  points="55.088432 44.699636 58.580859 39.410115 55.746214 34.500364 49.419141 34.880135" style="stroke:black; fill:none; stroke-width: 0.75px" />
<polygon  points="58.365354 45.269291 64.034646 42.434646 64.034646 36.765354 58.365354 33.930709" style="stroke:black; fill:none; stroke-width: 0.75px" />
<polygon  points="59.921683 60.136828 53.974380 66.843672 59.643672 76.663172 68.425620 74.866079" style="stroke:black; fill:none; stroke-width: 0.75px" />
<polygon  points="45.269291 56.834646 42.434646 51.165354 36.765354 51.165354 33.930709 56.834646" style="stroke:black; fill:none; stroke-width: 0.75px" />
<polygon  points="71.234646 41.130709 65.565354 43.965354 65.565354 49.634646 71.234646 52.469291" style="stroke:black; fill:none; stroke-width: 0.75px" />
<polygon  points="36.765354 45.269291 42.434646 42.434646 42.434646 36.765354 36.765354 33.930709" style="stroke:black; fill:none; stroke-width: 0.75px" />
<polygon  points="95.099636 45.711568 89.810115 42.219141 84.900364 45.053786 85.280135 51.380859" style="stroke:black; fill:none; stroke-width: 0.75px" />
<polygon  points="84.330709 51.165354 87.165354 56.834646 92.834646 56.834646 95.669291 51.165354" style="stroke:black; fill:none; stroke-width: 0.75px" />
<polygon  points="96.136828 62.478317 102.843672 68.425620 112.663172 62.756328 110.866079 53.974380" style="stroke:black; fill:none; stroke-width: 0.75px" />
<polygon  points="99.300364 47.888432 104.589885 51.380859 109.499636 48.546214 109.119865 42.219141" style="stroke:black; fill:none; stroke-width: 0.75px" />
<polygon  points="91.278317 62.263172 97.225620 55.556328 91.556328 45.736828 82.774380 47.533921" style="stroke:black; fill:none; stroke-width: 0.75px" />
<polygon  points="102.869291 64.034646 100.034646 58.365354 94.365354 58.365354 91.530709 64.034646" style="stroke:black; fill:none; stroke-width: 0.75px" />
<polygon  points="110.069291 49.634646 107.234646 43.965354 101.565354 43.965354 98.730709 49.634646" style="stroke:black; fill:none; stroke-width: 0.75px" />
<polygon  points="91.530709 43.965354 94.365354 49.634646 100.034646 49.634646 102.869291 43.965354" style="stroke:black; fill:none; stroke-width: 0.75px" />
<polygon  points="69.930709 36.765354 72.765354 42.434646 78.434646 42.434646 81.269291 36.765354" style="stroke:black; fill:none; stroke-width: 0.75px" />
<polygon  points="71.019141 58.719865 77.346214 59.099636 80.180859 54.189885 76.688432 48.900364" style="stroke:black; fill:none; stroke-width: 0.75px" />
<polygon  points="69.133921 46.774380 67.336828 55.556328 77.156328 61.225620 83.863172 55.278317" style="stroke:black; fill:none; stroke-width: 0.75px" />
<polygon  points="98.730709 51.165354 101.565354 56.834646 107.234646 56.834646 110.069291 51.165354" style="stroke:black; fill:none; stroke-width: 0.75px" />
<polygon  points="91.530709 65.565354 94.365354 71.234646 100.034646 71.234646 102.869291 65.565354" style="stroke:black; fill:none; stroke-width: 0.75px" />
<polygon  points="84.330709 36.765354 87.165354 42.434646 92.834646 42.434646 95.669291 36.765354" style="stroke:black; fill:none; stroke-width: 0.75px" />
<polygon  points="99.819141 73.119865 106.146214 73.499636 108.980859 68.589885 105.488432 63.300364" style="stroke:black; fill:none; stroke-width: 0.75px" />
<polygon  points="88.469291 42.434646 85.634646 36.765354 79.965354 36.765354 77.130709 42.434646" style="stroke:black; fill:none; stroke-width: 0.75px" />
<polygon  points="120.078317 76.663172 126.025620 69.956328 120.356328 60.136828 111.574380 61.933921" style="stroke:black; fill:none; stroke-width: 0.75px" />
<polygon  points="131.669291 49.634646 128.834646 43.965354 123.165354 43.965354 120.330709 49.634646" style="stroke:black; fill:none; stroke-width: 0.75px" />
<polygon  points="123.519865 58.580859 123.899636 52.253786 118.989885 49.419141 113.700364 52.911568" style="stroke:black; fill:none; stroke-width: 0.75px" />
<polygon  points="112.333921 46.774380 110.536828 55.556328 120.356328 61.225620 127.063172 55.278317" style="stroke:black; fill:none; stroke-width: 0.75px" />
<polygon  points="132.111568 63.300364 128.619141 68.589885 131.453786 73.499636 137.780859 73.119865" style="stroke:black; fill:none; stroke-width: 0.75px" />
<polygon  points="134.288432 44.699636 137.780859 39.410115 134.946214 34.500364 128.619141 34.880135" style="stroke:black; fill:none; stroke-width: 0.75px" />
<polygon  points="137.919865 58.580859 138.299636 52.253786 133.389885 49.419141 128.100364 52.911568" style="stroke:black; fill:none; stroke-width: 0.75px" />
<polygon  points="117.711568 63.300364 114.219141 68.589885 117.053786 73.499636 123.380859 73.119865" style="stroke:black; fill:none; stroke-width: 0.75px" />
<polygon  points="135.819141 65.919865 142.146214 66.299636 144.980859 61.389885 141.488432 56.100364" style="stroke:black; fill:none; stroke-width: 0.75px" />
<polygon  points="120.900364 40.688432 126.189885 44.180859 131.099636 41.346214 130.719865 35.019141" style="stroke:black; fill:none; stroke-width: 0.75px" />
<polygon  points="150.434646 55.530709 144.765354 58.365354 144.765354 64.034646 150.434646 66.869291" style="stroke:black; fill:none; stroke-width: 0.75px" />
<polygon  points="164.834646 62.730709 159.165354 65.565354 159.165354 71.234646 164.834646 74.069291" style="stroke:black; fill:none; stroke-width: 0.75px" />
<polygon  points="141.930709 36.765354 144.765354 42.434646 150.434646 42.434646 153.269291 36.765354" style="stroke:black; fill:none; stroke-width: 0.75px" />
<polygon  points="146.321683 38.536828 140.374380 45.243672 146.043672 55.063172 154.825620 53.266079" style="stroke:black; fill:none; stroke-width: 0.75px" />
<polygon  points="157.634646 62.730709 151.965354 65.565354 151.965354 71.234646 157.634646 74.069291" style="stroke:black; fill:none; stroke-width: 0.75px" />
<polygon  points="170.288432 73.499636 173.780859 68.210115 170.946214 63.300364 164.619141 63.680135" style="stroke:black; fill:none; stroke-width: 0.75px" />
<polygon  points="141.930709 43.965354 144.765354 49.634646 150.434646 49.634646 153.269291 43.965354" style="stroke:black; fill:none; stroke-width: 0.75px" />
<polygon  points="25.933921 75.574380 24.136828 84.356328 33.956328 90.025620 40.663172 84.078317" style="stroke:black; fill:none; stroke-width: 0.75px" />
<polygon  points="23.669291 100.034646 20.834646 94.365354 15.165354 94.365354 12.330709 100.034646" style="stroke:black; fill:none; stroke-width: 0.75px" />
<polyline points="10.825620 76.333921 2.043672 74.536828 2.043672 74.536828 0.000000 78.076571" style="stroke:black; fill:none; stroke-width: 0.75px" />
<polyline points="-0.000000 88.444983 2.321683 91.063172 2.321683 91.063172 10.825620 76.333921" style="stroke:black; fill:none; stroke-width: 0.75px" />
<polyline points="8.699636 96.111568 3.410115 92.619141 3.410115 92.619141 0.000000 94.587971" style="stroke:black; fill:none; stroke-width: 0.75px" />
<polyline points="0.000000 101.134305 8.699636 96.111568" style="stroke:black; fill:none; stroke-width: 0.75px" />
<polygon  points="30.869291 100.034646 28.034646 94.365354 22.365354 94.365354 19.530709 100.034646" style="stroke:black; fill:none; stroke-width: 0.75px" />
<polygon  points="35.234646 77.130709 29.565354 79.965354 29.565354 85.634646 35.234646 88.469291" style="stroke:black; fill:none; stroke-width: 0.75px" />
<polygon  points="23.669291 107.234646 20.834646 101.565354 15.165354 101.565354 12.330709 107.234646" style="stroke:black; fill:none; stroke-width: 0.75px" />
<polygon  points="13.634646 84.330709 7.965354 87.165354 7.965354 92.834646 13.634646 95.669291" style="stroke:black; fill:none; stroke-width: 0.75px" />
<polyline points="-0.000000 84.103937 0.765354 85.634646 0.765354 85.634646 6.434646 85.634646 6.434646 85.634646 9.269291 79.965354 9.269291 79.965354 -0.000000 79.965354" style="stroke:black; fill:none; stroke-width: 0.75px" />
<polygon  points="15.165354 88.469291 20.834646 85.634646 20.834646 79.965354 15.165354 77.130709" style="stroke:black; fill:none; stroke-width: 0.75px" />
<polyline points="-0.000000 76.903937 0.765354 78.434646 0.765354 78.434646 6.434646 78.434646 6.434646 78.434646 9.269291 72.765354 9.269291 72.765354 -0.000000 72.765354" style="stroke:black; fill:none; stroke-width: 0.75px" />
<polygon  points="13.634646 69.930709 7.965354 72.765354 7.965354 78.434646 13.634646 81.269291" style="stroke:black; fill:none; stroke-width: 0.75px" />
<polyline points="-0.000000 105.703937 0.765354 107.234646 0.765354 107.234646 6.434646 107.234646 6.434646 107.234646 9.269291 101.565354 9.269291 101.565354 -0.000000 101.565354" style="stroke:black; fill:none; stroke-width: 0.75px" />
<polygon  points="29.919865 94.580859 30.299636 88.253786 25.389885 85.419141 20.100364 88.911568" style="stroke:black; fill:none; stroke-width: 0.75px" />
<polygon  points="36.765354 88.469291 42.434646 85.634646 42.434646 79.965354 36.765354 77.130709" style="stroke:black; fill:none; stroke-width: 0.75px" />
<polygon  points="49.634646 77.130709 43.965354 79.965354 43.965354 85.634646 49.634646 88.469291" style="stroke:black; fill:none; stroke-width: 0.75px" />
<polygon  points="84.330709 72.765354 87.165354 78.434646 92.834646 78.434646 95.669291 72.765354" style="stroke:black; fill:none; stroke-width: 0.75px" />
<polygon  points="88.469291 85.634646 85.634646 79.965354 79.965354 79.965354 77.130709 85.634646" style="stroke:black; fill:none; stroke-width: 0.75px" />
<polygon  points="84.330709 87.165354 87.165354 92.834646 92.834646 92.834646 95.669291 87.165354" style="stroke:black; fill:none; stroke-width: 0.75px" />
<polygon  points="110.866079 111.625620 112.663172 102.843672 102.843672 97.174380 96.136828 103.121683" style="stroke:black; fill:none; stroke-width: 0.75px" />
<polygon  points="91.530709 101.565354 94.365354 107.234646 100.034646 107.234646 102.869291 101.565354" style="stroke:black; fill:none; stroke-width: 0.75px" />
<polygon  points="98.730709 87.165354 101.565354 92.834646 107.234646 92.834646 110.069291 87.165354" style="stroke:black; fill:none; stroke-width: 0.75px" />
<polygon  points="91.530709 79.965354 94.365354 85.634646 100.034646 85.634646 102.869291 79.965354" style="stroke:black; fill:none; stroke-width: 0.75px" />
<polygon  points="139.311568 92.100364 135.819141 97.389885 138.653786 102.299636 144.980859 101.919865" style="stroke:black; fill:none; stroke-width: 0.75px" />
<polygon  points="124.469291 100.034646 121.634646 94.365354 115.965354 94.365354 113.130709 100.034646" style="stroke:black; fill:none; stroke-width: 0.75px" />
<polygon  points="124.469291 92.834646 121.634646 87.165354 115.965354 87.165354 113.130709 92.834646" style="stroke:black; fill:none; stroke-width: 0.75px" />
<polygon  points="105.930709 87.165354 108.765354 92.834646 114.434646 92.834646 117.269291 87.165354" style="stroke:black; fill:none; stroke-width: 0.75px" />
<polygon  points="108.765354 110.069291 114.434646 107.234646 114.434646 101.565354 108.765354 98.730709" style="stroke:black; fill:none; stroke-width: 0.75px" />
<polygon  points="134.730709 79.965354 137.565354 85.634646 143.234646 85.634646 146.069291 79.965354" style="stroke:black; fill:none; stroke-width: 0.75px" />
<polygon  points="120.330709 79.965354 123.165354 85.634646 128.834646 85.634646 131.669291 79.965354" style="stroke:black; fill:none; stroke-width: 0.75px" />
<polygon  points="112.878317 112.663172 118.825620 105.956328 113.156328 96.136828 104.374380 97.933921" style="stroke:black; fill:none; stroke-width: 0.75px" />
<polygon  points="105.930709 72.765354 108.765354 78.434646 114.434646 78.434646 117.269291 72.765354" style="stroke:black; fill:none; stroke-width: 0.75px" />
<polygon  points="127.088432 80.699636 130.580859 75.410115 127.746214 70.500364 121.419141 70.880135" style="stroke:black; fill:none; stroke-width: 0.75px" />
<polygon  points="134.730709 101.565354 137.565354 107.234646 143.234646 107.234646 146.069291 101.565354" style="stroke:black; fill:none; stroke-width: 0.75px" />
<polygon  points="110.321683 74.536828 104.374380 81.243672 110.043672 91.063172 118.825620 89.266079" style="stroke:black; fill:none; stroke-width: 0.75px" />
<polygon  points="132.136828 76.878317 138.843672 82.825620 148.663172 77.156328 146.866079 68.374380" style="stroke:black; fill:none; stroke-width: 0.75px" />
<polygon  points="141.463172 88.721683 134.756328 82.774380 124.936828 88.443672 126.733921 97.225620" style="stroke:black; fill:none; stroke-width: 0.75px" />
<polygon  points="105.930709 79.965354 108.765354 85.634646 114.434646 85.634646 117.269291 79.965354" style="stroke:black; fill:none; stroke-width: 0.75px" />
<polygon  points="137.919865 94.580859 138.299636 88.253786 133.389885 85.419141 128.100364 88.911568" style="stroke:black; fill:none; stroke-width: 0.75px" />
<polygon  points="160.469291 92.834646 157.634646 87.165354 151.965354 87.165354 149.130709 92.834646" style="stroke:black; fill:none; stroke-width: 0.75px" />
<polygon  points="160.469291 85.634646 157.634646 79.965354 151.965354 79.965354 149.130709 85.634646" style="stroke:black; fill:none; stroke-width: 0.75px" />
<polygon  points="164.619141 101.919865 170.946214 102.299636 173.780859 97.389885 170.288432 92.100364" style="stroke:black; fill:none; stroke-width: 0.75px" />
<polygon  points="156.900364 83.888432 162.189885 87.380859 167.099636 84.546214 166.719865 78.219141" style="stroke:black; fill:none; stroke-width: 0.75px" />
<polygon  points="149.130709 101.565354 151.965354 107.234646 157.634646 107.234646 160.469291 101.565354" style="stroke:black; fill:none; stroke-width: 0.75px" />
<polygon  points="156.330709 94.365354 159.165354 100.034646 164.834646 100.034646 167.669291 94.365354" style="stroke:black; fill:none; stroke-width: 0.75px" />
<polygon  points="149.130709 87.165354 151.965354 92.834646 157.634646 92.834646 160.469291 87.165354" style="stroke:black; fill:none; stroke-width: 0.75px" />
<polygon  points="153.269291 78.434646 150.434646 72.765354 144.765354 72.765354 141.930709 78.434646" style="stroke:black; fill:none; stroke-width: 0.75px" />
<polygon  points="160.469291 100.034646 157.634646 94.365354 151.965354 94.365354 149.130709 100.034646" style="stroke:black; fill:none; stroke-width: 0.75px" />
<polyline points="180.000000 103.096063 179.234646 101.565354 179.234646 101.565354 173.565354 101.565354 173.565354 101.565354 170.730709 107.234646 170.730709 107.234646 180.000000 107.234646" style="stroke:black; fill:none; stroke-width: 0.75px" />
<polygon  points="13.634646 113.130709 7.965354 115.965354 7.965354 121.634646 13.634646 124.469291" style="stroke:black; fill:none; stroke-width: 0.75px" />
<polygon  points="26.730709 123.165354 29.565354 128.834646 35.234646 128.834646 38.069291 123.165354" style="stroke:black; fill:none; stroke-width: 0.75px" />
<polygon  points="37.119865 123.380859 37.499636 117.053786 32.589885 114.219141 27.300364 117.711568" style="stroke:black; fill:none; stroke-width: 0.75px" />
<polygon  points="7.965354 138.869291 13.634646 136.034646 13.634646 130.365354 7.965354 127.530709" style="stroke:black; fill:none; stroke-width: 0.75px" />
<polyline points="0.000000 114.212029 3.410115 116.180859 3.410115 116.180859 8.699636 112.688432 8.699636 112.688432 0.000000 107.665695" style="stroke:black; fill:none; stroke-width: 0.75px" />
<polygon  points="27.300364 134.288432 32.589885 137.780859 37.499636 134.946214 37.119865 128.619141" style="stroke:black; fill:none; stroke-width: 0.75px" />
<polygon  points="13.419141 145.119865 19.746214 145.499636 22.580859 140.589885 19.088432 135.300364" style="stroke:black; fill:none; stroke-width: 0.75px" />
<polygon  points="13.634646 105.930709 7.965354 108.765354 7.965354 114.434646 13.634646 117.269291" style="stroke:black; fill:none; stroke-width: 0.75px" />
<polygon  points="39.574380 125.266079 48.356328 127.063172 54.025620 117.243672 48.078317 110.536828" style="stroke:black; fill:none; stroke-width: 0.75px" />
<polygon  points="66.869291 121.634646 64.034646 115.965354 58.365354 115.965354 55.530709 121.634646" style="stroke:black; fill:none; stroke-width: 0.75px" />
<polygon  points="74.069291 128.834646 71.234646 123.165354 65.565354 123.165354 62.730709 128.834646" style="stroke:black; fill:none; stroke-width: 0.75px" />
<polygon  points="52.469291 128.834646 49.634646 123.165354 43.965354 123.165354 41.130709 128.834646" style="stroke:black; fill:none; stroke-width: 0.75px" />
<polygon  points="44.319865 116.180859 44.699636 109.853786 39.789885 107.019141 34.500364 110.511568" style="stroke:black; fill:none; stroke-width: 0.75px" />
<polygon  points="51.165354 138.869291 56.834646 136.034646 56.834646 130.365354 51.165354 127.530709" style="stroke:black; fill:none; stroke-width: 0.75px" />
<polygon  points="41.130709 137.565354 43.965354 143.234646 49.634646 143.234646 52.469291 137.565354" style="stroke:black; fill:none; stroke-width: 0.75px" />
<polygon  points="52.469291 121.634646 49.634646 115.965354 43.965354 115.965354 41.130709 121.634646" style="stroke:black; fill:none; stroke-width: 0.75px" />
<polygon  points="52.469291 136.034646 49.634646 130.365354 43.965354 130.365354 41.130709 136.034646" style="stroke:black; fill:none; stroke-width: 0.75px" />
<polygon  points="92.100364 119.888432 97.389885 123.380859 102.299636 120.546214 101.919865 114.219141" style="stroke:black; fill:none; stroke-width: 0.75px" />
<polygon  points="82.825620 105.133921 74.043672 103.336828 68.374380 113.156328 74.321683 119.863172" style="stroke:black; fill:none; stroke-width: 0.75px" />
<polygon  points="100.034646 105.930709 94.365354 108.765354 94.365354 114.434646 100.034646 117.269291" style="stroke:black; fill:none; stroke-width: 0.75px" />
<polygon  points="87.165354 117.269291 92.834646 114.434646 92.834646 108.765354 87.165354 105.930709" style="stroke:black; fill:none; stroke-width: 0.75px" />
<polygon  points="67.336828 112.878317 74.043672 118.825620 83.863172 113.156328 82.066079 104.374380" style="stroke:black; fill:none; stroke-width: 0.75px" />
<polygon  points="88.469291 121.634646 85.634646 115.965354 79.965354 115.965354 77.130709 121.634646" style="stroke:black; fill:none; stroke-width: 0.75px" />
<polygon  points="84.330709 108.765354 87.165354 114.434646 92.834646 114.434646 95.669291 108.765354" style="stroke:black; fill:none; stroke-width: 0.75px" />
<polygon  points="78.434646 134.730709 72.765354 137.565354 72.765354 143.234646 78.434646 146.069291" style="stroke:black; fill:none; stroke-width: 0.75px" />
<polygon  points="79.965354 146.069291 85.634646 143.234646 85.634646 137.565354 79.965354 134.730709" style="stroke:black; fill:none; stroke-width: 0.75px" />
<polygon  points="79.965354 131.669291 85.634646 128.834646 85.634646 123.165354 79.965354 120.330709" style="stroke:black; fill:none; stroke-width: 0.75px" />
<polygon  points="109.119865 137.780859 109.499636 131.453786 104.589885 128.619141 99.300364 132.111568" style="stroke:black; fill:none; stroke-width: 0.75px" />
<polygon  points="95.669291 128.834646 92.834646 123.165354 87.165354 123.165354 84.330709 128.834646" style="stroke:black; fill:none; stroke-width: 0.75px" />
<polygon  points="78.434646 120.330709 72.765354 123.165354 72.765354 128.834646 78.434646 131.669291" style="stroke:black; fill:none; stroke-width: 0.75px" />
<polygon  points="107.234646 105.930709 101.565354 108.765354 101.565354 114.434646 107.234646 117.269291" style="stroke:black; fill:none; stroke-width: 0.75px" />
<polygon  points="87.165354 146.069291 92.834646 143.234646 92.834646 137.565354 87.165354 134.730709" style="stroke:black; fill:none; stroke-width: 0.75px" />
<polygon  points="128.480135 121.419141 128.100364 127.746214 133.010115 130.580859 138.299636 127.088432" style="stroke:black; fill:none; stroke-width: 0.75px" />
<polygon  points="146.069291 121.634646 143.234646 115.965354 137.565354 115.965354 134.730709 121.634646" style="stroke:black; fill:none; stroke-width: 0.75px" />
<polygon  points="113.130709 123.165354 115.965354 128.834646 121.634646 128.834646 124.469291 123.165354" style="stroke:black; fill:none; stroke-width: 0.75px" />
<polygon  points="124.469291 143.234646 121.634646 137.565354 115.965354 137.565354 113.130709 143.234646" style="stroke:black; fill:none; stroke-width: 0.75px" />
<polygon  points="108.765354 131.669291 114.434646 128.834646 114.434646 123.165354 108.765354 120.330709" style="stroke:black; fill:none; stroke-width: 0.75px" />
<polygon  points="124.721683 103.336828 118.774380 110.043672 124.443672 119.863172 133.225620 118.066079" style="stroke:black; fill:none; stroke-width: 0.75px" />
<polygon  points="108.765354 124.469291 114.434646 121.634646 114.434646 115.965354 108.765354 113.130709" style="stroke:black; fill:none; stroke-width: 0.75px" />
<polygon  points="131.669291 136.034646 128.834646 130.365354 123.165354 130.365354 120.330709 136.034646" style="stroke:black; fill:none; stroke-width: 0.75px" />
<polygon  points="115.965354 124.469291 121.634646 121.634646 121.634646 115.965354 115.965354 113.130709" style="stroke:black; fill:none; stroke-width: 0.75px" />
<polygon  points="144.765354 117.269291 150.434646 114.434646 150.434646 108.765354 144.765354 105.930709" style="stroke:black; fill:none; stroke-width: 0.75px" />
<polygon  points="151.965354 117.269291 157.634646 114.434646 157.634646 108.765354 151.965354 105.930709" style="stroke:black; fill:none; stroke-width: 0.75px" />
<polygon  points="159.519865 137.780859 159.899636 131.453786 154.989885 128.619141 149.700364 132.111568" style="stroke:black; fill:none; stroke-width: 0.75px" />
<polygon  points="157.280135 121.419141 156.900364 127.746214 161.810115 130.580859 167.099636 127.088432" style="stroke:black; fill:none; stroke-width: 0.75px" />
<polygon  points="170.288432 131.099636 173.780859 125.810115 170.946214 120.900364 164.619141 121.280135" style="stroke:black; fill:none; stroke-width: 0.75px" />
<polyline points="171.680135 107.019141 171.300364 113.346214 171.300364 113.346214 176.210115 116.180859 176.210115 116.180859 180.000000 113.678572" style="stroke:black; fill:none; stroke-width: 0.75px" />
<polyline points="180.000000 111.822617 171.680135 107.019141" style="stroke:black; fill:none; stroke-width: 0.75px" />
<polygon  points="166.719865 116.180859 167.099636 109.853786 162.189885 107.019141 156.900364 110.511568" style="stroke:black; fill:none; stroke-width: 0.75px" />
<polygon  points="172.034646 134.730709 166.365354 137.565354 166.365354 143.234646 172.034646 146.069291" style="stroke:black; fill:none; stroke-width: 0.75px" />
<polygon  points="141.930709 108.765354 144.765354 114.434646 150.434646 114.434646 153.269291 108.765354" style="stroke:black; fill:none; stroke-width: 0.75px" />
<polygon  points="153.269291 128.834646 150.434646 123.165354 144.765354 123.165354 141.930709 128.834646" style="stroke:black; fill:none; stroke-width: 0.75px" />
<polygon  points="23.669291 157.634646 20.834646 151.965354 15.165354 151.965354 12.330709 157.634646" style="stroke:black; fill:none; stroke-width: 0.75px" />
<polygon  points="33.930709 166.365354 36.765354 172.034646 42.434646 172.034646 45.269291 166.365354" style="stroke:black; fill:none; stroke-width: 0.75px" />
<polygon  points="49.634646 170.730709 43.965354 173.565354 43.965354 179.234646 49.634646 182.069291" style="stroke:black; fill:none; stroke-width: 0.75px" />
<polygon  points="62.730709 159.165354 65.565354 164.834646 71.234646 164.834646 74.069291 159.165354" style="stroke:black; fill:none; stroke-width: 0.75px" />
<polygon  points="48.330709 159.165354 51.165354 164.834646 56.834646 164.834646 59.669291 159.165354" style="stroke:black; fill:none; stroke-width: 0.75px" />
<polygon  points="62.730709 166.365354 65.565354 172.034646 71.234646 172.034646 74.069291 166.365354" style="stroke:black; fill:none; stroke-width: 0.75px" />
<polygon  points="47.863172 153.521683 41.156328 147.574380 31.336828 153.243672 33.133921 162.025620" style="stroke:black; fill:none; stroke-width: 0.75px" />
<polygon  points="84.330709 166.365354 87.165354 172.034646 92.834646 172.034646 95.669291 166.365354" style="stroke:black; fill:none; stroke-width: 0.75px" />
<polygon  points="88.721683 160.936828 82.774380 167.643672 88.443672 177.463172 97.225620 175.666079" style="stroke:black; fill:none; stroke-width: 0.75px" />
<polygon  points="103.121683 153.736828 97.174380 160.443672 102.843672 170.263172 111.625620 168.466079" style="stroke:black; fill:none; stroke-width: 0.75px" />
<polygon  points="95.669291 164.834646 92.834646 159.165354 87.165354 159.165354 84.330709 164.834646" style="stroke:black; fill:none; stroke-width: 0.75px" />
<polygon  points="72.765354 167.669291 78.434646 164.834646 78.434646 159.165354 72.765354 156.330709" style="stroke:black; fill:none; stroke-width: 0.75px" />
<polygon  points="85.634646 149.130709 79.965354 151.965354 79.965354 157.634646 85.634646 160.469291" style="stroke:black; fill:none; stroke-width: 0.75px" />
<polygon  points="81.521683 146.536828 75.574380 153.243672 81.243672 163.063172 90.025620 161.266079" style="stroke:black; fill:none; stroke-width: 0.75px" />
<polygon  points="98.288432 167.099636 101.780859 161.810115 98.946214 156.900364 92.619141 157.280135" style="stroke:black; fill:none; stroke-width: 0.75px" />
<polygon  points="88.469291 172.034646 85.634646 166.365354 79.965354 166.365354 77.130709 172.034646" style="stroke:black; fill:none; stroke-width: 0.75px" />
<polygon  points="124.469291 164.834646 121.634646 159.165354 115.965354 159.165354 113.130709 164.834646" style="stroke:black; fill:none; stroke-width: 0.75px" />
<polygon  points="124.469291 179.234646 121.634646 173.565354 115.965354 173.565354 113.130709 179.234646" style="stroke:black; fill:none; stroke-width: 0.75px" />
<polygon  points="137.565354 174.869291 143.234646 172.034646 143.234646 166.365354 137.565354 163.530709" style="stroke:black; fill:none; stroke-width: 0.75px" />
<polygon  points="113.130709 173.565354 115.965354 179.234646 121.634646 179.234646 124.469291 173.565354" style="stroke:black; fill:none; stroke-width: 0.75px" />
<polygon  points="123.165354 153.269291 128.834646 150.434646 128.834646 144.765354 123.165354 141.930709" style="stroke:black; fill:none; stroke-width: 0.75px" />
<polygon  points="124.469291 157.634646 121.634646 151.965354 115.965354 151.965354 113.130709 157.634646" style="stroke:black; fill:none; stroke-width: 0.75px" />
<polygon  points="105.930709 166.365354 108.765354 172.034646 114.434646 172.034646 117.269291 166.365354" style="stroke:black; fill:none; stroke-width: 0.75px" />
<polygon  points="132.466079 176.425620 134.263172 167.643672 124.443672 161.974380 117.736828 167.921683" style="stroke:black; fill:none; stroke-width: 0.75px" />
<polygon  points="136.034646 141.930709 130.365354 144.765354 130.365354 150.434646 136.034646 153.269291" style="stroke:black; fill:none; stroke-width: 0.75px" />
<polygon  points="117.269291 150.434646 114.434646 144.765354 108.765354 144.765354 105.930709 150.434646" style="stroke:black; fill:none; stroke-width: 0.75px" />
<polygon  points="124.721683 139.336828 118.774380 146.043672 124.443672 155.863172 133.225620 154.066079" style="stroke:black; fill:none; stroke-width: 0.75px" />
<polygon  points="130.719865 173.780859 131.099636 167.453786 126.189885 164.619141 120.900364 168.111568" style="stroke:black; fill:none; stroke-width: 0.75px" />
<polygon  points="127.530709 159.165354 130.365354 164.834646 136.034646 164.834646 138.869291 159.165354" style="stroke:black; fill:none; stroke-width: 0.75px" />
<polygon  points="157.634646 141.930709 151.965354 144.765354 151.965354 150.434646 157.634646 153.269291" style="stroke:black; fill:none; stroke-width: 0.75px" />
<polygon  points="151.965354 174.869291 157.634646 172.034646 157.634646 166.365354 151.965354 163.530709" style="stroke:black; fill:none; stroke-width: 0.75px" />
<polygon  points="157.419141 152.319865 163.746214 152.699636 166.580859 147.789885 163.088432 142.500364" style="stroke:black; fill:none; stroke-width: 0.75px" />
<polygon  points="154.825620 141.133921 146.043672 139.336828 140.374380 149.156328 146.321683 155.863172" style="stroke:black; fill:none; stroke-width: 0.75px" />
<polygon  points="149.130709 159.165354 151.965354 164.834646 157.634646 164.834646 160.469291 159.165354" style="stroke:black; fill:none; stroke-width: 0.75px" />
<polygon  points="61.174380 204.466079 69.956328 206.263172 75.625620 196.443672 69.678317 189.736828" style="stroke:black; fill:none; stroke-width: 0.75px" />
<polygon  points="36.765354 189.269291 42.434646 186.434646 42.434646 180.765354 36.765354 177.930709" style="stroke:black; fill:none; stroke-width: 0.75px" />
<polygon  points="51.165354 210.869291 56.834646 208.034646 56.834646 202.365354 51.165354 199.530709" style="stroke:black; fill:none; stroke-width: 0.75px" />
<polygon  points="48.330709 209.565354 51.165354 215.234646 56.834646 215.234646 59.669291 209.565354" style="stroke:black; fill:none; stroke-width: 0.75px" />
<polygon  points="45.269291 215.234646 42.434646 209.565354 36.765354 209.565354 33.930709 215.234646" style="stroke:black; fill:none; stroke-width: 0.75px" />
<polygon  points="52.469291 208.034646 49.634646 202.365354 43.965354 202.365354 41.130709 208.034646" style="stroke:black; fill:none; stroke-width: 0.75px" />
<polygon  points="62.730709 180.765354 65.565354 186.434646 71.234646 186.434646 74.069291 180.765354" style="stroke:black; fill:none; stroke-width: 0.75px" />
<polygon  points="52.721683 182.536828 46.774380 189.243672 52.443672 199.063172 61.225620 197.266079" style="stroke:black; fill:none; stroke-width: 0.75px" />
<polygon  points="92.100364 184.688432 97.389885 188.180859 102.299636 185.346214 101.919865 179.019141" style="stroke:black; fill:none; stroke-width: 0.75px" />
<polygon  points="72.765354 196.469291 78.434646 193.634646 78.434646 187.965354 72.765354 185.130709" style="stroke:black; fill:none; stroke-width: 0.75px" />
<polygon  points="100.034646 192.330709 94.365354 195.165354 94.365354 200.834646 100.034646 203.669291" style="stroke:black; fill:none; stroke-width: 0.75px" />
<polygon  points="110.069291 186.434646 107.234646 180.765354 101.565354 180.765354 98.730709 186.434646" style="stroke:black; fill:none; stroke-width: 0.75px" />
<polygon  points="102.869291 215.234646 100.034646 209.565354 94.365354 209.565354 91.530709 215.234646" style="stroke:black; fill:none; stroke-width: 0.75px" />
<polygon  points="95.669291 200.834646 92.834646 195.165354 87.165354 195.165354 84.330709 200.834646" style="stroke:black; fill:none; stroke-width: 0.75px" />
<polygon  points="101.565354 203.669291 107.234646 200.834646 107.234646 195.165354 101.565354 192.330709" style="stroke:black; fill:none; stroke-width: 0.75px" />
<polygon  points="91.088432 195.899636 94.580859 190.610115 91.746214 185.700364 85.419141 186.080135" style="stroke:black; fill:none; stroke-width: 0.75px" />
<polygon  points="77.700364 184.688432 82.989885 188.180859 87.899636 185.346214 87.519865 179.019141" style="stroke:black; fill:none; stroke-width: 0.75px" />
<polygon  points="81.736828 199.278317 88.443672 205.225620 98.263172 199.556328 96.466079 190.774380" style="stroke:black; fill:none; stroke-width: 0.75px" />
<polygon  points="117.496063 208.148031 120.330709 216.651969 131.669291 216.651969 134.503937 208.148031" style="stroke:black; fill:none; stroke-width: 0.75px" />
<polygon  points="117.269291 193.634646 114.434646 187.965354 108.765354 187.965354 105.930709 193.634646" style="stroke:black; fill:none; stroke-width: 0.75px" />
<polygon  points="134.288432 188.699636 137.780859 183.410115 134.946214 178.500364 128.619141 178.880135" style="stroke:black; fill:none; stroke-width: 0.75px" />
<polygon  points="128.834646 185.130709 123.165354 187.965354 123.165354 193.634646 128.834646 196.469291" style="stroke:black; fill:none; stroke-width: 0.75px" />
<polygon  points="120.330709 195.165354 123.165354 200.834646 128.834646 200.834646 131.669291 195.165354" style="stroke:black; fill:none; stroke-width: 0.75px" />
<polygon  points="113.130709 180.765354 115.965354 186.434646 121.634646 186.434646 124.469291 180.765354" style="stroke:black; fill:none; stroke-width: 0.75px" />
<polygon  points="123.519865 202.580859 123.899636 196.253786 118.989885 193.419141 113.700364 196.911568" style="stroke:black; fill:none; stroke-width: 0.75px" />
<polygon  points="114.434646 192.330709 108.765354 195.165354 108.765354 200.834646 114.434646 203.669291" style="stroke:black; fill:none; stroke-width: 0.75px" />
<polygon  points="131.669291 193.634646 128.834646 187.965354 123.165354 187.965354 120.330709 193.634646" style="stroke:black; fill:none; stroke-width: 0.75px" />
<polygon  points="134.730709 209.565354 137.565354 215.234646 143.234646 215.234646 146.069291 209.565354" style="stroke:black; fill:none; stroke-width: 0.75px" />
<polygon  points="139.666079 190.825620 141.463172 182.043672 131.643672 176.374380 124.936828 182.321683" style="stroke:black; fill:none; stroke-width: 0.75px" />
<polygon  points="131.669291 215.234646 128.834646 209.565354 123.165354 209.565354 120.330709 215.234646" style="stroke:black; fill:none; stroke-width: 0.75px" />
<polygon  points="128.619141 209.919865 134.946214 210.299636 137.780859 205.389885 134.288432 200.100364" style="stroke:black; fill:none; stroke-width: 0.75px" />
<polygon  points="117.521683 204.136828 111.574380 210.843672 117.243672 220.663172 126.025620 218.866079" style="stroke:black; fill:none; stroke-width: 0.75px" />
<polygon  points="153.521683 204.136828 147.574380 210.843672 153.243672 220.663172 162.025620 218.866079" style="stroke:black; fill:none; stroke-width: 0.75px" />
<polygon  points="157.634646 192.330709 151.965354 195.165354 151.965354 200.834646 157.634646 203.669291" style="stroke:black; fill:none; stroke-width: 0.75px" />
<polygon  points="159.165354 210.869291 164.834646 208.034646 164.834646 202.365354 159.165354 199.530709" style="stroke:black; fill:none; stroke-width: 0.75px" />
<polygon  points="164.619141 217.119865 170.946214 217.499636 173.780859 212.589885 170.288432 207.300364" style="stroke:black; fill:none; stroke-width: 0.75px" />
<polygon  points="159.899636 211.311568 154.610115 207.819141 149.700364 210.653786 150.080135 216.980859" style="stroke:black; fill:none; stroke-width: 0.75px" />
<polygon  points="175.666079 205.225620 177.463172 196.443672 167.643672 190.774380 160.936828 196.721683" style="stroke:black; fill:none; stroke-width: 0.75px" />
<polygon  points="147.574380 190.066079 156.356328 191.863172 162.025620 182.043672 156.078317 175.336828" style="stroke:black; fill:none; stroke-width: 0.75px" />
<polyline points="171.819141 217.119865 178.146214 217.499636 178.146214 217.499636 180.000000 214.288784" style="stroke:black; fill:none; stroke-width: 0.75px" />
<polyline points="180.000000 211.104306 177.488432 207.300364 177.488432 207.300364 171.819141 217.119865" style="stroke:black; fill:none; stroke-width: 0.75px" />
<polygon  points="153.269291 200.834646 150.434646 195.165354 144.765354 195.165354 141.930709 200.834646" style="stroke:black; fill:none; stroke-width: 0.75px" />
<polygon  points="164.619141 202.719865 170.946214 203.099636 173.780859 198.189885 170.288432 192.900364" style="stroke:black; fill:none; stroke-width: 0.75px" />
<polygon  points="155.888432 188.699636 159.380859 183.410115 156.546214 178.500364 150.219141 178.880135" style="stroke:black; fill:none; stroke-width: 0.75px" />
<polygon  points="141.930709 202.365354 144.765354 208.034646 150.434646 208.034646 153.269291 202.365354" style="stroke:black; fill:none; stroke-width: 0.75px" />
<polygon  points="157.419141 195.519865 163.746214 195.899636 166.580859 190.989885 163.088432 185.700364" style="stroke:black; fill:none; stroke-width: 0.75px" />
<polygon  points="38.069291 222.434646 35.234646 216.765354 29.565354 216.765354 26.730709 222.434646" style="stroke:black; fill:none; stroke-width: 0.75px" />
<polyline points="16.213391 252.000000 18.025620 249.956328 18.025620 249.956328 12.356328 240.136828 12.356328 240.136828 3.574380 241.933921 3.574380 241.933921 9.386033 252.000000" style="stroke:black; fill:none; stroke-width: 0.75px" />
<polygon  points="24.136828 228.078317 30.843672 234.025620 40.663172 228.356328 38.866079 219.574380" style="stroke:black; fill:none; stroke-width: 0.75px" />
<polyline points="19.063172 247.121683 12.356328 241.174380 12.356328 241.174380 2.536828 246.843672 2.536828 246.843672 3.591993 252.000000" style="stroke:black; fill:none; stroke-width: 0.75px" />
<polyline points="10.613679 252.000000 19.063172 247.121683" style="stroke:black; fill:none; stroke-width: 0.75px" />
<polyline points="31.121683 240.136828 25.174380 246.843672 25.174380 246.843672 28.151388 252.000000" style="stroke:black; fill:none; stroke-width: 0.75px" />
<polyline points="37.970888 252.000000 31.121683 240.136828" style="stroke:black; fill:none; stroke-width: 0.75px" />
<polygon  points="20.834646 221.130709 15.165354 223.965354 15.165354 229.634646 20.834646 232.469291" style="stroke:black; fill:none; stroke-width: 0.75px" />
<polygon  points="24.136828 228.078317 30.843672 234.025620 40.663172 228.356328 38.866079 219.574380" style="stroke:black; fill:none; stroke-width: 0.75px" />
<polyline points="63.680135 243.819141 63.300364 250.146214 63.300364 250.146214 66.511216 252.000000" style="stroke:black; fill:none; stroke-width: 0.75px" />
<polyline points="69.695694 252.000000 73.499636 249.488432 73.499636 249.488432 63.680135 243.819141" style="stroke:black; fill:none; stroke-width: 0.75px" />
<polygon  points="41.700364 235.088432 46.989885 238.580859 51.899636 235.746214 51.519865 229.419141" style="stroke:black; fill:none; stroke-width: 0.75px" />
<polyline points="55.303937 252.000000 56.834646 251.234646 56.834646 251.234646 56.834646 245.565354 56.834646 245.565354 51.165354 242.730709 51.165354 242.730709 51.165354 252.000000" style="stroke:black; fill:none; stroke-width: 0.75px" />
<polygon  points="56.619141 238.719865 62.946214 239.099636 65.780859 234.189885 62.288432 228.900364" style="stroke:black; fill:none; stroke-width: 0.75px" />
<polygon  points="48.900364 220.688432 54.189885 224.180859 59.099636 221.346214 58.719865 215.019141" style="stroke:black; fill:none; stroke-width: 0.75px" />
<polygon  points="65.565354 246.869291 71.234646 244.034646 71.234646 238.365354 65.565354 235.530709" style="stroke:black; fill:none; stroke-width: 0.75px" />
<polygon  points="66.869291 251.234646 64.034646 245.565354 58.365354 245.565354 55.530709 251.234646" style="stroke:black; fill:none; stroke-width: 0.75px" />
<polygon  points="49.634646 235.530709 43.965354 238.365354 43.965354 244.034646 49.634646 246.869291" style="stroke:black; fill:none; stroke-width: 0.75px" />
<polygon  points="68.425620 220.333921 59.643672 218.536828 53.974380 228.356328 59.921683 235.063172" style="stroke:black; fill:none; stroke-width: 0.75px" />
<polygon  points="91.530709 216.765354 94.365354 222.434646 100.034646 222.434646 102.869291 216.765354" style="stroke:black; fill:none; stroke-width: 0.75px" />
<polygon  points="97.174380 226.066079 105.956328 227.863172 111.625620 218.043672 105.678317 211.336828" style="stroke:black; fill:none; stroke-width: 0.75px" />
<polygon  points="98.730709 223.965354 101.565354 229.634646 107.234646 229.634646 110.069291 223.965354" style="stroke:black; fill:none; stroke-width: 0.75px" />
<polygon  points="88.469291 222.434646 85.634646 216.765354 79.965354 216.765354 77.130709 222.434646" style="stroke:black; fill:none; stroke-width: 0.75px" />
<polygon  points="84.330709 223.965354 87.165354 229.634646 92.834646 229.634646 95.669291 223.965354" style="stroke:black; fill:none; stroke-width: 0.75px" />
<polygon  points="102.869291 222.434646 100.034646 216.765354 94.365354 216.765354 91.530709 222.434646" style="stroke:black; fill:none; stroke-width: 0.75px" />
<polygon  points="105.488432 224.699636 108.980859 219.410115 106.146214 214.500364 99.819141 214.880135" style="stroke:black; fill:none; stroke-width: 0.75px" />
<polyline points="76.903937 252.000000 78.434646 251.234646 78.434646 251.234646 78.434646 245.565354 78.434646 245.565354 72.765354 242.730709 72.765354 242.730709 72.765354 252.000000" style="stroke:black; fill:none; stroke-width: 0.75px" />
<polygon  points="105.678317 242.263172 111.625620 235.556328 105.956328 225.736828 97.174380 227.533921" style="stroke:black; fill:none; stroke-width: 0.75px" />
<polygon  points="98.730709 245.565354 101.565354 251.234646 107.234646 251.234646 110.069291 245.565354" style="stroke:black; fill:none; stroke-width: 0.75px" />
<polygon  points="81.521683 211.336828 75.574380 218.043672 81.243672 227.863172 90.025620 226.066079" style="stroke:black; fill:none; stroke-width: 0.75px" />
<polygon  points="113.130709 223.965354 115.965354 229.634646 121.634646 229.634646 124.469291 223.965354" style="stroke:black; fill:none; stroke-width: 0.75px" />
<polygon  points="145.499636 240.111568 140.210115 236.619141 135.300364 239.453786 135.680135 245.780859" style="stroke:black; fill:none; stroke-width: 0.75px" />
<polygon  points="130.365354 232.469291 136.034646 229.634646 136.034646 223.965354 130.365354 221.130709" style="stroke:black; fill:none; stroke-width: 0.75px" />
<polygon  points="134.730709 216.765354 137.565354 222.434646 143.234646 222.434646 146.069291 216.765354" style="stroke:black; fill:none; stroke-width: 0.75px" />
<polygon  points="115.965354 239.669291 121.634646 236.834646 121.634646 231.165354 115.965354 228.330709" style="stroke:black; fill:none; stroke-width: 0.75px" />
<polygon  points="123.165354 232.469291 128.834646 229.634646 128.834646 223.965354 123.165354 221.130709" style="stroke:black; fill:none; stroke-width: 0.75px" />
<polyline points="112.903937 252.000000 114.434646 251.234646 114.434646 251.234646 114.434646 245.565354 114.434646 245.565354 108.765354 242.730709 108.765354 242.730709 108.765354 252.000000" style="stroke:black; fill:none; stroke-width: 0.75px" />
<polygon  points="124.469291 222.434646 121.634646 216.765354 115.965354 216.765354 113.130709 222.434646" style="stroke:black; fill:none; stroke-width: 0.75px" />
<polygon  points="133.225620 234.733921 124.443672 232.936828 118.774380 242.756328 124.721683 249.463172" style="stroke:black; fill:none; stroke-width: 0.75px" />
<polygon  points="142.500364 227.888432 147.789885 231.380859 152.699636 228.546214 152.319865 222.219141" style="stroke:black; fill:none; stroke-width: 0.75px" />
<polyline points="180.000000 247.104306 177.488432 243.300364 177.488432 243.300364 172.465695 252.000000" style="stroke:black; fill:none; stroke-width: 0.75px" />
<polygon  points="151.965354 232.469291 157.634646 229.634646 157.634646 223.965354 151.965354 221.130709" style="stroke:black; fill:none; stroke-width: 0.75px" />
<polygon  points="159.165354 232.469291 164.834646 229.634646 164.834646 223.965354 159.165354 221.130709" style="stroke:black; fill:none; stroke-width: 0.75px" />
<polyline points="166.778739 252.000000 167.099636 246.653786 167.099636 246.653786 162.189885 243.819141 162.189885 243.819141 156.900364 247.311568 156.900364 247.311568 165.020967 252.000000" style="stroke:black; fill:none; stroke-width: 0.75px" />
<polyline points="171.300364 227.888432 176.589885 231.380859 176.589885 231.380859 180.000000 229.412029" style="stroke:black; fill:none; stroke-width: 0.75px" />
<polyline points="180.000000 222.865695 171.300364 227.888432" style="stroke:black; fill:none; stroke-width: 0.75px" />
<polygon  points="166.365354 239.669291 172.034646 236.834646 172.034646 231.165354 166.365354 228.330709" style="stroke:black; fill:none; stroke-width: 0.75px" />
<polygon  points="153.269291 236.834646 150.434646 231.165354 144.765354 231.165354 141.930709 236.834646" style="stroke:black; fill:none; stroke-width: 0.75px" />
<polygon  points="163.063172 239.921683 156.356328 233.974380 146.536828 239.643672 148.333921 248.425620" style="stroke:black; fill:none; stroke-width: 0.75px" />
<polygon  points="153.269291 229.634646 150.434646 223.965354 144.765354 223.965354 141.930709 229.634646" style="stroke:black; fill:none; stroke-width: 0.75px" />
<polygon  points="163.530709 245.565354 166.365354 251.234646 172.034646 251.234646 174.869291 245.565354" style="stroke:black; fill:none; stroke-width: 0.75px" />
<polyline points="168.136828 235.278317 174.843672 241.225620 174.843672 241.225620 180.000000 238.248612" style="stroke:black; fill:none; stroke-width: 0.75px" />
<polyline points="180.000000 228.429112 168.136828 235.278317" style="stroke:black; fill:none; stroke-width: 0.75px" />
</svg>