<?xml version="1.0" encoding="utf-8"?>
<!-- Generator: Adobe Illustrator 23.1.0, SVG Export Plug-In . SVG Version: 6.00 Build 0)  -->
<svg version="1.1" id="ROOT" xmlns="http://www.w3.org/2000/svg" xmlns:xlink="http://www.w3.org/1999/xlink" x="0px" y="0px"
	 viewBox="0 0 595.3 841.9" style="enable-background:new 0 0 595.3 841.9;" xml:space="preserve">
<style type="text/css">
	.st0{fill:none;stroke:#FF0000;stroke-width:0.75;stroke-miterlimit:10;}
	.st1{font-family:'MyriadPro-Bold';}
	.st2{font-size:3px;}
	.st3{opacity:0.3;fill:#68B42E;enable-background:new    ;}
</style>
<g id="ASCII33">
	<line class="st0" x1="16.3" y1="12" x2="16.3" y2="18.2"/>
	<circle class="st0" cx="16.3" cy="19.8" r="0.5"/>
</g>
<g id="Lineheight">
	<line class="st0" x1="6.2" y1="12.5" x2="6.2" y2="20.5"/>
</g>
<g id="ASCII34">
	<line class="st0" x1="39.1" y1="11.5" x2="39.1" y2="14.9"/>
	<line class="st0" x1="41.2" y1="11.5" x2="41.2" y2="14.9"/>
	<text transform="matrix(1 0 0 1 31.383 9.6387)" class="st1 st2">alignment top</text>
</g>
<g id="ASCII35">
	<line class="st0" x1="63.3" y1="12" x2="61.9" y2="20.4"/>
	<line class="st0" x1="66" y1="12" x2="64.5" y2="20.4"/>
	<line class="st0" x1="60.9" y1="14.8" x2="67.4" y2="14.8"/>
	<line class="st0" x1="60.4" y1="17.6" x2="67" y2="17.6"/>
</g>
<g id="ASCII36">
	<polyline class="st0" points="90.2,13.6 89.7,13 89,12.6 88.3,12.4 87.6,12.3 86.9,12.5 86.3,12.8 85.9,13.1 85.6,13.6 85.5,14.2 
		85.6,14.6 85.8,15.1 86.2,15.5 86.8,15.9 87.9,16.1 88.7,16.3 89.3,16.5 89.7,16.7 90,17.2 90.2,17.5 90.3,18.1 90.2,18.7 
		89.9,19.2 89.6,19.5 88.9,19.8 88.1,20 87.4,20.1 86.5,19.8 86,19.5 85.5,18.9 85.2,18.6 	"/>
	<line class="st0" x1="87.8" y1="11" x2="87.8" y2="21.4"/>
	<text transform="matrix(1 0 0 1 76.7039 9.6384)" class="st1 st2">alignment middle</text>
</g>
<g id="ASCII37">
	<circle class="st0" cx="108.7" cy="14.2" r="1.7"/>
	<circle class="st0" cx="114.5" cy="18.1" r="1.7"/>
	<line class="st0" x1="114.5" y1="12.1" x2="108.8" y2="20.4"/>
</g>
<g id="ASCII38">
	<polyline class="st0" points="139.1,16.4 137.8,16.4 137.8,17 137.6,17.6 137.4,18.4 136.9,19 136.4,19.6 135.8,19.9 135.3,20.1 
		134.5,20.2 133.8,20 133,19.5 132.6,18.9 132.5,18.1 132.7,17.4 133.1,16.8 133.5,16.4 134.4,15.9 135.3,15.5 135.9,15.1 
		136.4,14.6 136.7,14 136.6,13.2 136.4,12.7 136,12.5 135.6,12.3 135.2,12.2 134.8,12.3 134.3,12.3 133.8,12.6 133.5,13.1 
		133.4,13.6 133.4,14.3 133.6,14.8 133.9,15.4 138.6,20.4 	"/>
</g>
<g id="ASCII39">
	<line class="st0" x1="159.2" y1="11.5" x2="159.2" y2="14.9"/>
	<text transform="matrix(1 0 0 1 150.7405 8.089)" class="st1 st2">alignment top</text>
</g>
<g id="ASCII40">
	<polyline class="st0" points="184.6,11.3 183.9,12.1 183.6,12.4 183.3,13 183,13.6 182.7,14.4 182.6,15.1 182.4,16.1 182.4,16.8 
		182.4,17.3 182.5,18.1 182.7,18.9 183,19.7 183.4,20.4 183.7,21 184,21.4 184.4,21.9 184.6,22 	"/>
	<text transform="matrix(1 0 0 1 174.1936 5.7809)" class="st1 st2">alignment middle</text>
</g>
<g id="ASCII41">
	<polyline class="st0" points="205.4,11.3 206.1,12.1 206.4,12.4 206.8,13 207.1,13.6 207.3,14.4 207.5,15.1 207.6,16.1 207.6,16.8 
		207.6,17.3 207.6,18.1 207.4,18.9 207.1,19.7 206.7,20.4 206.4,21 206,21.4 205.6,21.9 205.5,22 	"/>
	<text transform="matrix(1 0 0 1 194.5672 9.6384)" class="st1 st2">alignment middle</text>
</g>
<g id="ASCII42">
	<polyline class="st0" points="230.7,11.5 230.7,13.7 229.4,15.5 	"/>
	<polyline class="st0" points="232,15.5 230.7,13.7 228.6,13 	"/>
	<line class="st0" x1="232.8" y1="13" x2="230.7" y2="13.7"/>
	<text transform="matrix(1 0 0 1 221.1581 9.6386)" class="st1 st2">alignment top</text>
</g>
<g id="ASCII43">
	<line class="st0" x1="254.5" y1="13.8" x2="254.5" y2="19.6"/>
	<line class="st0" x1="257.3" y1="16.7" x2="251.7" y2="16.7"/>
	<text transform="matrix(1 0 0 1 243.407 10.9999)" class="st1 st2">alignment middle</text>
</g>
<g id="ASCII44">
	<line class="st0" x1="277.6" y1="22" x2="278.6" y2="19.1"/>
	<text transform="matrix(1 0 0 1 272.7596 17.7002)" class="st1 st2">offset 0.5</text>
</g>
<g id="ASCII45">
	<line class="st0" x1="300.6" y1="16.7" x2="303.7" y2="16.7"/>
	<text transform="matrix(1 0 0 1 290.8903 12.5001)" class="st1 st2">alignment middle</text>
</g>
<g id="ASCII46">
	<circle class="st0" cx="326" cy="19.8" r="0.5"/>
</g>
<g id="ASCII47">
	<line class="st0" x1="351.1" y1="11.5" x2="348" y2="22.2"/>
	<text transform="matrix(1 0 0 1 338.8083 9.6385)" class="st1 st2">alignment middle</text>
</g>
<g id="ASCII48">
	<polygon class="st0" points="373.6,12.3 373.2,12.3 372.6,12.5 372.1,12.8 371.8,13.2 371.6,13.7 371.4,14.4 371.3,15.1 371.2,16 
		371.2,16.7 371.2,17.2 371.3,17.9 371.5,18.5 371.7,19.1 372.1,19.6 372.5,19.9 373,20.1 373.5,20.1 373.7,20.1 374.2,20.1 
		374.8,19.9 375.2,19.6 375.5,19.1 375.8,18.5 376,17.9 376,17.2 376,16.7 376,16 376,15.1 375.8,14.4 375.7,13.7 375.4,13.2 
		375.1,12.8 374.6,12.5 374,12.3 373.7,12.3 	"/>
</g>
<g id="ASCII49">
	<polyline class="st0" points="394.7,14.4 397,12.3 397.7,12.3 397.7,20 	"/>
	<line class="st0" x1="394.9" y1="20" x2="400.3" y2="20"/>
</g>
<g id="ASCII50">
	<polyline class="st0" points="418.9,14 419,13.6 419.3,13.1 419.7,12.7 420.1,12.4 420.7,12.2 421.2,12.2 421.7,12.3 422.1,12.5 
		422.6,12.8 422.9,13.2 423.1,13.8 423.2,14.4 423.1,14.9 423,15.4 422.7,15.9 422.2,16.5 421.5,17.2 420.6,18.1 419.5,19.1 
		418.9,19.5 418.9,19.9 424,19.9 	"/>
</g>
<g id="ASCII51">
	<polyline class="st0" points="442.7,13.5 443.1,12.9 443.7,12.5 444.5,12.3 445,12.3 445.6,12.4 446,12.6 446.4,12.9 446.7,13.4 
		446.8,13.8 446.8,14.5 446.6,14.9 446.3,15.3 445.9,15.6 445.4,15.8 444.8,15.9 443.7,15.9 444.8,16 445.5,16.1 445.9,16.3 
		446.2,16.5 446.5,16.8 446.8,17.1 446.9,17.4 446.9,17.8 446.9,18.2 446.9,18.7 446.7,19.1 446.5,19.4 446.2,19.7 445.7,19.9 
		445.1,20.1 444.6,20.1 444,20 443.6,19.9 443.1,19.7 442.7,19.3 442.3,18.8 	"/>
</g>
<g id="ASCII52">
	<polyline class="st0" points="470.2,20.4 470.2,12.3 469.5,12.3 466.2,17.9 466.2,18.3 471.9,18.3 	"/>
</g>
<g id="ASCII53">
	<polyline class="st0" points="495,12.4 491,12.4 490.7,16.3 491.2,16.4 491.5,16 492,15.7 492.6,15.5 493.2,15.5 493.6,15.7 
		494.1,16 494.5,16.3 494.7,16.7 494.8,17.1 494.9,17.6 494.9,18.1 494.8,18.6 494.6,19.1 494.3,19.6 493.8,19.9 493.1,20.1 
		492.5,20.1 491.8,20 491.3,19.8 490.9,19.5 490.6,19.1 490.4,18.8 	"/>
</g>
<g id="ASCII54">
	<polyline class="st0" points="517.3,12 516.5,12.6 516,13.1 515.4,13.8 515,14.3 514.7,15 514.5,15.6 514.3,16.3 514.2,16.8 
		514.2,17.6 514.3,18.3 514.5,18.8 514.7,19.3 515.1,19.7 515.5,19.9 516.1,20.1 516.6,20.1 517.1,20.1 517.6,19.9 518.1,19.6 
		518.4,19.2 518.7,18.6 518.8,17.9 518.7,17.1 518.5,16.4 518,15.9 517.4,15.6 516.6,15.6 516.1,15.6 515.6,15.9 515,16.3 
		514.9,16.5 514.7,16.6 514.6,16.9 514.5,17.2 514.3,17.5 514.3,18 	"/>
</g>
<g id="ASCII55">
	<polyline class="st0" points="538,14.4 538,12.4 542.5,12.4 542.5,12.9 539.4,20.4 	"/>
</g>
<g id="ASCII56">
	<polygon class="st0" points="564.2,12.3 563.5,12.4 563,12.5 562.6,12.8 562.2,13.1 562.1,13.5 562,14 562,14.4 562.1,14.7 
		562.3,15.1 562.5,15.3 563,15.7 563.3,15.8 563.8,15.9 564.4,16.1 565,16.2 565.4,16.4 565.8,16.6 566.1,16.9 566.3,17.3 
		566.5,17.7 566.5,18.1 566.5,18.5 566.4,19 566.1,19.4 565.7,19.7 565.2,19.9 564.7,20 564.2,20.1 563.8,20.1 563.1,20 562.5,19.7 
		562.2,19.4 561.9,18.9 561.8,18.3 561.8,17.8 561.9,17.3 562.1,16.9 562.5,16.5 562.9,16.3 563.5,16.1 564.9,15.8 565.4,15.6 
		565.9,15.3 566.2,14.9 566.3,14.4 566.3,13.8 566.2,13.3 566,12.9 565.5,12.5 564.9,12.3 	"/>
</g>
<g id="ASCII57">
	<polyline class="st0" points="587.2,20.4 587.9,19.8 588.5,19.3 589.1,18.6 589.4,18.1 589.8,17.4 590,16.8 590.2,16.1 590.2,15.6 
		590.3,14.8 590.2,14.1 590,13.6 589.7,13.1 589.4,12.7 589,12.5 588.4,12.3 587.8,12.3 587.4,12.3 586.9,12.5 586.4,12.8 586,13.2 
		585.8,13.8 585.7,14.5 585.7,15.2 586,16 586.5,16.5 587.1,16.8 587.8,16.8 588.4,16.7 588.9,16.5 589.4,16.1 589.6,15.9 
		589.7,15.8 589.9,15.5 590,15.2 590.1,14.9 590.2,14.4 	"/>
</g>
<g id="ASCII58">
	<circle class="st0" cx="16.4" cy="42.8" r="0.5"/>
	<circle class="st0" cx="16.4" cy="47.7" r="0.5"/>
</g>
<g id="ASCII59">
	<circle class="st0" cx="39.4" cy="42.8" r="0.5"/>
	<line class="st0" x1="38.7" y1="49.9" x2="39.7" y2="47"/>
	<text transform="matrix(1 0 0 1 33.0645 40.7261)" class="st1 st2">offset 0.26</text>
</g>
<g id="ASCII60">
	<polyline class="st0" points="65.8,42 61.2,44.8 61.2,45.4 65.8,48 	"/>
	<text transform="matrix(1 0 0 1 55.0771 39.4739)" class="st1 st2">alignment middle</text>
</g>
<g id="ASCII61">
	<line class="st0" x1="85" y1="43.4" x2="90.6" y2="43.4"/>
	<line class="st0" x1="90.6" y1="45.9" x2="85" y2="45.9"/>
	<text transform="matrix(1 0 0 1 78.4177 39.4739)" class="st1 st2">alignment middle</text>
</g>
<g id="ASCII62">
	<polyline class="st0" points="107.2,42 111.8,44.8 111.8,45.4 107.2,48 	"/>
	<text transform="matrix(1 0 0 1 101.8903 39.4738)" class="st1 st2">alignment middle</text>
</g>
<g id="ASCII63">
	<circle class="st0" cx="133.9" cy="47.7" r="0.5"/>
	<polyline class="st0" points="131.9,41.9 132.1,41.5 132.3,41.1 132.5,40.8 133,40.5 133.3,40.4 133.7,40.2 134.1,40.2 134.3,40.2 
		134.8,40.3 135.2,40.5 135.5,40.7 135.8,41.1 135.9,41.5 136,41.8 136,42.2 136,42.6 135.9,43 135.8,43.2 135.6,43.5 135.2,43.7 
		134.9,44 134.5,44.1 134.2,44.2 133.9,44.3 133.9,45.9 	"/>
</g>
<g id="ASCII64">
	<polyline class="st0" points="164.7,43.9 164,43.1 163.5,42.7 162.9,42.6 162.4,42.6 161.9,42.8 161.6,43.2 161.4,43.6 161.2,44.1 
		161.2,44.6 161.2,45.3 161.3,45.7 161.5,46.2 161.6,46.5 161.9,46.8 162.3,47 162.7,47.1 163.1,47.2 163.6,47 164,46.8 164.3,46.5 
		164.6,46.1 164.7,45.9 	"/>
	<polyline class="st0" points="164.7,42.4 164.7,44.8 164.7,46.2 164.7,46.6 164.8,46.8 165.1,47 165.4,47.1 165.8,47.2 166.3,47.1 
		166.7,46.8 167.1,46.4 167.2,45.8 167.4,45.1 167.4,44.8 167.4,44 167.3,43.3 167,42.5 166.7,42 166.3,41.5 166,41.1 165.3,40.7 
		164.6,40.4 163.8,40.2 163.5,40.2 162.9,40.2 162.4,40.2 161.9,40.4 161.3,40.6 160.7,41 160.3,41.3 159.9,41.8 159.6,42.2 
		159.2,42.8 159,43.5 158.9,44 158.8,44.8 158.9,45.5 158.9,46 159.1,46.5 159.3,47.2 159.6,47.6 159.9,48.1 160.4,48.6 160.8,48.9 
		161.4,49.1 162.1,49.3 162.7,49.5 163.2,49.5 165.9,49.5 	"/>
	<text transform="matrix(1 0 0 1 150.7404 37.957)" class="st1 st2">alignment middle</text>
</g>
<g id="ASCII65">
	<polyline class="st0" points="181.8,48.3 184.6,40.3 185.2,40.3 187.9,48.3 	"/>
	<line class="st0" x1="182.8" y1="45.4" x2="186.9" y2="45.4"/>
</g>
<g id="ASCII66">
	<polyline class="st0" points="206.4,44 209.4,44 209.8,43.9 210.2,43.8 210.7,43.4 211,43.2 211.1,42.8 211.2,42.4 211.2,42 
		211.1,41.5 211,41.1 210.7,40.8 210.2,40.5 209.7,40.4 206.5,40.4 206.5,47.9 209.1,47.9 209.8,47.9 210.3,47.8 210.6,47.7 
		211.1,47.4 211.3,46.9 211.5,46.4 211.5,45.8 211.4,45.4 211.2,44.9 211,44.6 210.6,44.3 210.1,44.1 209.4,44 	"/>
</g>
<g id="ASCII67">
	<polyline class="st0" points="234.5,41.9 234.2,41.3 233.9,40.9 233.4,40.6 232.9,40.3 232.4,40.2 231.7,40.2 231,40.4 230.5,40.7 
		230.1,41 229.7,41.5 229.5,42.1 229.3,42.8 229.2,43.4 229.2,44 229.2,44.1 229.2,44.9 229.3,45.4 229.5,46.2 229.7,46.7 
		230.1,47.2 230.5,47.6 231,47.8 231.7,48.1 232.4,48 232.9,48 233.4,47.7 233.9,47.4 234.2,46.9 234.6,46.3 	"/>
</g>
<g id="ASCII68">
	<polygon class="st0" points="252.5,47.9 255.1,47.9 255.6,47.8 256.1,47.6 256.6,47.3 257.1,46.9 257.5,46.3 257.7,45.7 257.8,45 
		257.8,44.2 257.8,43.2 257.7,42.5 257.5,41.9 257.1,41.4 256.6,41 256.1,40.6 255.6,40.5 255.1,40.4 252.5,40.4 	"/>
</g>
<g id="ASCII69">
	<polyline class="st0" points="282.9,40.4 278.3,40.4 278.3,47.9 282.9,47.9 	"/>
	<line class="st0" x1="282.7" y1="44.1" x2="278.3" y2="44.1"/>
</g>
<g id="ASCII70">
	<polyline class="st0" points="305.9,40.4 301.4,40.4 301.4,48.3 	"/>
	<line class="st0" x1="305.5" y1="44.1" x2="301.3" y2="44.1"/>
</g>
<g id="ASCII71">
	<polyline class="st0" points="331.2,41.9 330.9,41.3 330.5,40.9 330,40.6 329.4,40.3 328.9,40.2 328.4,40.2 327.9,40.3 327.3,40.5 
		326.7,40.9 326.3,41.3 325.9,41.8 325.7,42.4 325.6,43.4 325.5,43.9 325.5,44.5 325.5,45.1 325.7,45.9 325.8,46.4 326.4,47.1 
		326.9,47.5 327.3,47.8 327.8,48 328.5,48.1 329,48 329.8,47.8 330.3,47.5 330.8,47 331.2,46.4 331.4,46.1 	"/>
	<polyline class="st0" points="331.3,48.4 331.3,44.5 329,44.5 	"/>
</g>
<g id="ASCII72">
	<line class="st0" x1="349.1" y1="40" x2="349.1" y2="48.3"/>
	<line class="st0" x1="354.3" y1="48.3" x2="354.3" y2="40"/>
	<line class="st0" x1="349" y1="44.1" x2="354.3" y2="44.1"/>
</g>
<g id="ASCII73">
	<line class="st0" x1="370.7" y1="40.4" x2="374.1" y2="40.4"/>
	<line class="st0" x1="370.7" y1="47.9" x2="374.1" y2="47.9"/>
	<line class="st0" x1="372.4" y1="40.3" x2="372.4" y2="48"/>
</g>
<g id="ASCII74">
	<polyline class="st0" points="395,40.4 398.4,40.4 398.4,45.8 398.3,46.5 398.3,46.9 398.1,47.3 397.8,47.7 397.4,47.9 397,48 
		396.7,48.1 396.2,48.1 395.7,48 395.3,47.8 395,47.5 394.8,47.1 394.7,46.5 	"/>
</g>
<g id="ASCII75">
	<line class="st0" x1="419.2" y1="40" x2="419.2" y2="48.4"/>
	<line class="st0" x1="424.3" y1="48.3" x2="421" y2="43.5"/>
	<line class="st0" x1="424.1" y1="40" x2="419.2" y2="45.3"/>
</g>
<g id="ASCII76">
	<polyline class="st0" points="443.1,40 443.1,47.9 447.1,47.9 	"/>
</g>
<g id="ASCII77">
	<polyline class="st0" points="466.8,48.3 466.8,40.3 467.5,40.3 470.1,45.3 472.9,40.3 473.4,40.3 473.4,48.3 	"/>
</g>
<g id="ASCII78">
	<polyline class="st0" points="490.6,48.3 490.6,40.4 491.1,40.4 495.5,47.9 496,47.9 496,40 	"/>
</g>
<g id="ASCII79">
	<polygon class="st0" points="517.2,48.1 516.9,48.1 516.4,48.1 515.9,47.9 515.5,47.7 514.9,47.2 514.6,46.8 514.4,46.2 
		514.2,45.6 514.1,45 514,44.3 514,44 514,43.6 514.1,42.9 514.2,42.3 514.5,41.7 514.8,41.3 515.3,40.8 515.8,40.5 516.6,40.3 
		517.2,40.3 517.3,40.3 517.7,40.3 518.5,40.5 519,40.8 519.5,41.3 519.8,41.7 520,42.3 520.2,42.9 520.2,43.6 520.3,44 520.3,44.3 
		520.2,45 520.1,45.6 519.9,46.2 519.6,46.8 519.3,47.2 518.8,47.7 518.4,47.9 517.9,48.1 517.3,48.1 	"/>
</g>
<g id="ASCII80">
	<polyline class="st0" points="538.3,48.3 538.3,40.3 540.9,40.3 541.5,40.4 541.9,40.5 542.3,40.7 542.6,41 542.9,41.5 542.9,42 
		543,42.4 543,42.6 543,43 542.8,43.5 542.5,43.9 542.1,44.2 541.7,44.3 541,44.3 538.3,44.3 	"/>
</g>
<g id="ASCII81">
	<polygon class="st0" points="564.8,48.1 564.5,48.1 564,48.1 563.5,47.9 563.1,47.7 562.5,47.2 562.2,46.8 562,46.2 561.8,45.6 
		561.7,45 561.6,44.3 561.6,44 561.6,43.6 561.7,42.9 561.8,42.3 562.1,41.7 562.4,41.3 562.9,40.8 563.4,40.5 564.2,40.3 
		564.8,40.3 564.9,40.3 565.3,40.3 566.1,40.5 566.6,40.8 567.1,41.3 567.4,41.7 567.6,42.3 567.8,42.9 567.8,43.6 567.8,44 
		567.8,44.3 567.8,45 567.7,45.6 567.5,46.2 567.2,46.8 566.9,47.2 566.4,47.7 565.9,47.9 565.5,48.1 564.9,48.1 	"/>
	<polyline class="st0" points="566.6,49.9 565.9,49.9 565.3,49.9 565.1,49.9 564.9,49.7 564.8,49.4 564.8,48.1 	"/>
	<text transform="matrix(1 0 0 1 558.6912 37.9569)" class="st1 st2">offset 0.1</text>
</g>
<g id="ASCII82">
	<polyline class="st0" points="585.9,48.3 585.9,40.4 588.7,40.4 589.2,40.4 589.7,40.6 590,40.8 590.3,41.2 590.5,41.6 590.6,42.1 
		590.6,42.5 590.6,43.1 590.4,43.5 590.1,43.9 589.7,44.1 589.4,44.3 589,44.3 585.9,44.3 	"/>
	<line class="st0" x1="590.8" y1="48.3" x2="588.8" y2="44.2"/>
</g>
<g id="ASCII83">
	<polyline class="st0" points="20.5,72.9 20.1,72.3 19.7,72 19.2,71.8 18.5,71.6 18,71.6 17.3,71.7 16.7,71.9 16.4,72.2 16,72.6 
		15.9,73 15.8,73.4 15.8,73.8 16,74.3 16.2,74.5 16.7,74.9 17.3,75.2 18.1,75.4 18.9,75.6 19.6,75.8 19.9,76.1 20.2,76.5 20.4,76.8 
		20.5,77.3 20.5,77.7 20.4,78.2 20.2,78.5 19.9,78.8 19.6,79.1 19.2,79.2 18.7,79.4 18.2,79.5 17.6,79.4 17,79.3 16.4,79 16,78.6 
		15.6,78.1 	"/>
</g>
<g id="ASCII84">
	<line class="st0" x1="37.9" y1="71.8" x2="44.2" y2="71.8"/>
	<line class="st0" x1="41.1" y1="79.7" x2="41.1" y2="71.7"/>
</g>
<g id="ASCII85">
	<polyline class="st0" points="56.3,71 56.3,76.5 56.3,77.2 56.2,77.6 55.9,78.1 55.7,78.5 55.2,78.9 54.7,79 54.2,79.1 53.8,79.1 
		53.4,79.1 52.8,79 52.4,78.9 51.9,78.5 51.6,78.1 51.4,77.6 51.3,77.2 51.2,76.5 51.2,71 	"/>
</g>
<g id="ASCII86">
	<polyline class="st0" points="60.5,71.4 63,79.2 63.6,79.2 66.2,71.4 	"/>
</g>
<g id="ASCII87">
	<polyline class="st0" points="84.9,71.4 86.8,79.2 87.3,79.2 89.3,71.8 89.8,71.8 91.7,79.3 92.2,79.3 94.2,71.4 	"/>
</g>
<g id="ASCII88">
	<line class="st0" x1="106.9" y1="71.4" x2="112.5" y2="79.7"/>
	<line class="st0" x1="112.5" y1="71.4" x2="106.9" y2="79.7"/>
</g>
<g id="ASCII89">
	<polyline class="st0" points="132,71.4 134.8,76 137.7,71.4 	"/>
	<line class="st0" x1="134.8" y1="79.7" x2="134.8" y2="76"/>
</g>
<g id="ASCII90">
	<polyline class="st0" points="158.5,71.8 163.6,71.8 163.6,72.2 158.7,78.9 158.7,79.3 164.1,79.3 	"/>
</g>
<g id="ASCII91">
	<polyline class="st0" points="184.1,71 182.5,71 182.5,81 184.1,81 	"/>
	<text transform="matrix(1 0 0 1 172.8584 69.3743)" class="st1 st2">alignment middle</text>
</g>
<g id="ASCII92">
	<line class="st0" x1="205.8" y1="70.8" x2="208.9" y2="81.5"/>
	<text transform="matrix(1 0 0 1 195.3259 65.0559)" class="st1 st2">alignment middle</text>
</g>
<g id="ASCII93">
	<polyline class="st0" points="228.5,71 230.1,71 230.1,81 228.5,81 	"/>
	<text transform="matrix(1 0 0 1 217.3639 68.682)" class="st1 st2">alignment middle</text>
</g>
<g id="ASCII94">
	<polyline class="st0" points="251.9,75.9 254.2,71.7 254.8,71.7 257.1,76 	"/>
	<text transform="matrix(1 0 0 1 245.9493 68.089)" class="st1 st2">alignment top</text>
</g>
<g id="ASCII95">
	<line class="st0" x1="277.1" y1="81.3" x2="283.1" y2="81.3"/>
</g>
<g id="ASCII96">
	<line class="st0" x1="302.4" y1="70.6" x2="303.6" y2="72.5"/>
	<text transform="matrix(1 0 0 1 294.0811 68.0889)" class="st1 st2">alignment top</text>
</g>
<g id="ASCII97">
	<polyline class="st0" points="325.4,74.9 325.8,74.4 326,74.2 326.4,73.9 326.7,73.8 327.1,73.8 327.3,73.8 327.7,73.8 328,73.9 
		328.4,74.1 328.7,74.2 328.9,74.5 329,74.7 329.1,75 329.2,75.3 329.2,75.7 329.2,78.6 329.3,78.8 329.4,79.1 329.5,79.2 
		329.7,79.3 329.9,79.3 330.2,79.3 330.4,79.3 	"/>
	<polyline class="st0" points="329.2,76.6 328,76.6 327.4,76.5 326.7,76.6 326.3,76.7 325.9,76.9 325.6,77.1 325.4,77.3 325.3,77.7 
		325.3,78.1 325.3,78.4 325.4,78.7 325.7,79 326,79.3 326.5,79.5 327,79.5 327.5,79.4 327.9,79.3 328.2,79.1 328.6,78.8 328.8,78.4 
		329.3,77.7 	"/>
</g>
<g id="ASCII98">
	<line class="st0" x1="349" y1="70.9" x2="349" y2="79.7"/>
	<polyline class="st0" points="349,75.2 349.6,74.5 350.1,74.1 350.4,74 350.8,73.8 351.2,73.8 351.7,73.9 352.1,74 352.5,74.2 
		352.7,74.6 353.1,75.1 353.2,75.4 353.3,75.9 353.4,76.3 353.3,76.9 353.3,77.4 353.2,78 352.9,78.5 352.6,78.9 352.4,79.1 
		352.1,79.3 351.6,79.5 351.2,79.5 350.8,79.4 350.3,79.2 349.9,78.9 349.5,78.5 348.9,77.7 	"/>
</g>
<g id="ASCII99">
	<polyline class="st0" points="375.2,75 375,74.6 374.7,74.2 374.3,73.9 373.8,73.8 373.4,73.8 372.9,73.8 372.5,73.9 372.1,74.1 
		371.7,74.5 371.4,74.9 371.2,75.3 371.1,75.6 371,76.3 371,76.9 371.1,77.5 371.2,78 371.4,78.4 371.7,78.8 372,79.1 372.3,79.3 
		372.9,79.5 373.4,79.5 373.8,79.5 374.3,79.3 374.7,79 375,78.7 375.3,78.2 	"/>
</g>
<g id="ASCII100">
	<line class="st0" x1="399.3" y1="70.9" x2="399.3" y2="79.7"/>
	<polyline class="st0" points="399.2,75.2 398.6,74.5 398.1,74.1 397.8,74 397.4,73.8 397,73.8 396.6,73.9 396.1,74 395.7,74.2 
		395.5,74.6 395.2,75.1 395,75.4 394.9,75.9 394.9,76.3 394.9,76.9 394.9,77.4 395,78 395.3,78.5 395.6,78.9 395.8,79.1 396.2,79.3 
		396.6,79.5 397,79.5 397.4,79.4 397.9,79.2 398.3,78.9 398.7,78.5 399.3,77.7 	"/>
</g>
<g id="ASCII101">
	<polyline class="st0" points="423.1,78.2 422.9,78.5 422.6,78.8 422.3,79.1 421.9,79.3 421.4,79.4 420.8,79.4 420.3,79.3 
		419.8,79.1 419.3,78.7 418.9,78.1 418.7,77.3 418.6,76.8 418.6,76.4 418.7,75.5 418.9,74.9 419.4,74.3 419.9,74 420.6,73.7 
		421.1,73.7 421.6,73.9 422.2,74.2 422.6,74.6 422.9,75 423.1,75.5 423.2,76 423.2,76.5 418.6,76.5 	"/>
</g>
<g id="ASCII102">
	<polyline class="st0" points="445.1,71.2 444,71.2 443.7,71.3 443.5,71.4 443.3,71.6 443.3,72 443.3,72.5 443.3,79.7 	"/>
	<line class="st0" x1="445.1" y1="73.9" x2="441.8" y2="73.9"/>
</g>
<g id="ASCII103">
	<polyline class="st0" points="467.5,79.2 466.8,79.7 466.4,80.1 466.3,80.4 466.2,80.6 466.2,80.9 466.3,81.2 466.5,81.5 467,81.7 
		467.6,81.9 468.2,81.9 469.2,81.9 469.7,81.8 470.2,81.7 470.5,81.5 470.8,81.3 471,81 471.1,80.5 471,79.9 470.7,79.6 470.3,79.3 
		469.8,79.2 469.1,79.1 468.2,79.1 467.6,79.2 467.3,79.1 466.9,79 466.7,78.8 466.6,78.4 466.7,78.1 466.8,77.9 467.2,77.6 
		467.5,77.5 468,77.2 468.3,77.3 468.9,77.3 469.5,77.1 469.8,76.9 470.1,76.5 470.2,76 470.3,75.4 470.2,74.9 470.1,74.5 
		469.8,74.2 469.4,73.9 468.9,73.8 468.3,73.7 467.8,73.9 467.2,74.2 466.8,74.7 466.6,75 466.6,75.5 466.6,75.9 466.7,76.3 
		467.1,76.9 467.9,77.2 	"/>
	<polyline class="st0" points="471.2,73.1 470.7,73.1 470.3,73 470.1,73.1 469.9,73.2 469.9,73.3 469.9,73.5 469.8,73.8 469.8,74.2 
			"/>
</g>
<g id="ASCII104">
	<line class="st0" x1="490.5" y1="79.7" x2="490.5" y2="70.9"/>
	<polyline class="st0" points="494.4,79.7 494.4,75.6 494.4,75.1 494.3,74.6 494,74.2 493.6,73.9 493.1,73.8 492.4,73.8 492,73.9 
		491.4,74.3 491.1,74.6 490.5,75.3 	"/>
</g>
<g id="ASCII105">
	<circle class="st0" cx="514.4" cy="71.5" r="0.5"/>
	<line class="st0" x1="514.4" y1="73.5" x2="514.4" y2="79.7"/>
</g>
<g id="ASCII106">
	<circle class="st0" cx="538.2" cy="71.5" r="0.5"/>
	<polyline class="st0" points="538.2,73.6 538.2,80.5 538.2,81.2 538.1,81.4 537.9,81.6 537.7,81.7 537.4,81.8 536.7,81.8 	"/>
</g>
<g id="ASCII107">
	<line class="st0" x1="562" y1="70.9" x2="562" y2="79.7"/>
	<line class="st0" x1="565.8" y1="73.5" x2="562" y2="77.3"/>
	<line class="st0" x1="566" y1="79.7" x2="563.4" y2="75.8"/>
</g>
<g id="ASCII108">
	<polyline id="pfad" class="st0" points="585.8,70.8 585.8,78.1 585.8,78.9 585.9,79.1 586.1,79.3 586.5,79.3 587.2,79.3 	"/>
</g>
<g id="ASCII109">
	<line class="st0" x1="18.5" y1="105" x2="18.5" y2="111.2"/>
	<polyline class="st0" points="26,111.2 26,107 25.9,106.5 25.7,106 25.5,105.7 25.1,105.4 24.7,105.3 24.3,105.3 23.7,105.4 
		23.3,105.6 22.9,106 22.5,106.5 22.3,107 22.3,111.2 	"/>
	<polyline class="st0" points="18.5,106.7 18.9,106.1 19.4,105.7 19.7,105.4 20.2,105.3 20.7,105.3 21.2,105.4 21.6,105.6 
		21.9,105.9 22.1,106.3 22.3,107 	"/>
</g>
<g id="ASCII110">
	<line class="st0" x1="41.5" y1="105" x2="41.5" y2="111.2"/>
	<polyline class="st0" points="41.5,106.7 41.9,106.1 42.4,105.7 42.7,105.4 43.2,105.3 43.7,105.3 44.3,105.4 44.6,105.6 
		44.9,105.9 45.1,106.3 45.3,107 45.4,107.4 45.4,108 45.4,111.2 	"/>
</g>
<g id="ASCII111">
	<polygon class="st0" points="65.5,110.9 65.3,110.9 64.9,110.8 64.5,110.8 64.2,110.6 63.8,110.3 63.5,109.9 63.4,109.6 
		63.2,109.1 63.1,108.7 63.1,108.2 63.1,108 63.1,107.7 63.1,107.2 63.2,106.8 63.4,106.4 63.7,106.1 64,105.7 64.4,105.5 65,105.4 
		65.5,105.4 65.5,105.4 65.8,105.4 66.4,105.5 66.8,105.7 67.1,106.1 67.4,106.4 67.6,106.8 67.7,107.2 67.7,107.7 67.7,108 
		67.7,108.2 67.7,108.7 67.6,109.1 67.5,109.6 67.3,109.9 67.1,110.3 66.7,110.6 66.3,110.8 66,110.8 65.6,110.9 	"/>
</g>
<g id="ASCII112">
	<line class="st0" x1="88" y1="105" x2="88" y2="113.6"/>
	<polyline class="st0" points="88,106.8 88.6,106.2 88.9,105.8 89.5,105.4 89.8,105.3 90.3,105.3 90.8,105.3 91.4,105.5 91.8,105.8 
		92.2,106.3 92.4,107.1 92.5,108 92.5,108.7 92.4,109.3 92.2,109.8 91.9,110.3 91.4,110.7 90.9,110.9 90.3,111 89.9,110.9 
		89.4,110.8 89.1,110.5 88.7,110.1 88,109.2 	"/>
	<text transform="matrix(1 0 0 1 82.1527 102.1107)" class="st1 st2">offset 0.3</text>
</g>
<g id="ASCII113">
	<line class="st0" x1="113.9" y1="105" x2="113.9" y2="113.6"/>
	<polyline class="st0" points="113.9,106.8 113.4,106.2 113,105.8 112.5,105.4 112.1,105.3 111.7,105.3 111.1,105.3 110.6,105.5 
		110.1,105.8 109.8,106.3 109.5,107.1 109.4,108 109.4,108.7 109.6,109.3 109.7,109.8 110.1,110.3 110.5,110.7 111,110.9 111.6,111 
		112,110.9 112.5,110.8 112.8,110.5 113.2,110.1 113.9,109.2 	"/>
	<text transform="matrix(1 0 0 1 105.7816 103.5452)" class="st1 st2">offset 0.3</text>
</g>
<g id="ASCII114">
	<line class="st0" x1="135.1" y1="105.1" x2="135.1" y2="111.2"/>
	<polyline class="st0" points="137.8,105.5 136.9,105.5 136.4,105.7 135.8,106.1 135.1,106.9 	"/>
</g>
<g id="ASCII115">
	<polyline class="st0" points="164.9,106.2 164.5,105.8 164.2,105.6 163.8,105.4 163.3,105.3 162.8,105.3 162.4,105.3 162.1,105.5 
		161.7,105.7 161.5,105.9 161.4,106.2 161.3,106.5 161.2,106.8 161.3,107.1 161.4,107.5 161.6,107.7 162.1,107.9 162.8,108.1 
		163.4,108.2 163.9,108.3 164.2,108.4 164.5,108.6 164.6,108.8 164.8,109.1 164.8,109.5 164.8,109.9 164.7,110.2 164.5,110.5 
		164.3,110.7 164,110.8 163.8,110.9 163.3,111 162.8,111 162.4,110.9 162,110.7 161.5,110.4 160.9,109.9 	"/>
</g>
<g id="ASCII116">
	<polyline class="st0" points="185.2,103.3 185.2,110.2 185.3,110.4 185.4,110.7 185.6,110.8 185.9,110.8 186.9,110.8 	"/>
	<line class="st0" x1="183.7" y1="105.4" x2="187.1" y2="105.4"/>
</g>
<g id="ASCII117">
	<polyline class="st0" points="208.7,105.1 208.7,108.8 208.7,109.4 208.8,109.9 209,110.2 209.3,110.6 209.7,110.8 210,110.9 
		210.4,110.9 210.8,110.9 211.2,110.8 211.6,110.5 212,110.1 212.6,109.3 	"/>
	<line class="st0" x1="212.5" y1="111.2" x2="212.5" y2="105"/>
</g>
<g id="ASCII118">
	<polyline class="st0" points="231,105.1 233,110.8 233.5,110.8 235.5,105.1 	"/>
</g>
<g id="ASCII119">
	<polyline class="st0" points="254.1,105.1 255.6,110.8 256.2,110.8 257.8,105.3 257.9,105.3 259.6,110.8 260.2,110.8 261.7,105 	
		"/>
</g>
<g id="ASCII120">
	<line class="st0" x1="280" y1="105.1" x2="284.3" y2="111.2"/>
	<line class="st0" x1="284.2" y1="105.1" x2="279.9" y2="111.2"/>
</g>
<g id="ASCII121">
	<polyline class="st0" points="307.4,105.1 304.7,112.7 304.5,112.9 304.4,113.1 304.3,113.1 304,113.2 303.6,113.2 303.2,113.2 	
		"/>
	<polyline class="st0" points="302.7,105.1 304.8,110.7 305,111.1 305.2,111.3 	"/>
</g>
<g id="ASCII122">
	<polyline class="st0" points="327.2,105.5 331.3,105.5 331.3,105.7 327.5,110.5 327.5,110.8 331.8,110.8 	"/>
</g>
<g id="ASCII123">
	<polyline class="st0" points="353.2,112.5 352.4,112.5 352,112.5 351.8,112.4 351.7,112.2 351.7,111.8 351.7,110.6 351.7,109 
		351.6,108.7 351.5,108.4 351.4,108.2 351.2,108 350.9,107.9 350.6,107.7 350.4,107.6 350.4,107.3 350.6,107.3 350.9,107.1 
		351.2,107 351.4,106.8 351.5,106.6 351.6,106.3 351.7,105.9 351.7,104.3 351.7,103.1 351.7,102.8 351.8,102.6 352,102.5 
		352.4,102.4 353.2,102.4 	"/>
	<text transform="matrix(1 0 0 1 341.0892 100.1327)" class="st1 st2">alignment middle</text>
</g>
<g id="ASCII124">
	<line class="st0" x1="374.2" y1="102.1" x2="374.2" y2="112.9"/>
	<text transform="matrix(1 0 0 1 363.2266 95.5171)" class="st1 st2">alignment middle</text>
</g>
<g id="ASCII125">
	<polyline class="st0" points="396.9,112.5 397.8,112.5 398.1,112.5 398.3,112.4 398.4,112.2 398.5,111.8 398.5,110.6 398.5,109 
		398.5,108.7 398.6,108.4 398.8,108.2 399,108 399.2,107.9 399.6,107.7 399.7,107.6 399.7,107.3 399.6,107.3 399.2,107.1 399,107 
		398.8,106.8 398.6,106.6 398.5,106.3 398.5,105.9 398.5,104.3 398.5,103.1 398.4,102.8 398.3,102.6 398.1,102.5 397.8,102.4 
		396.9,102.4 	"/>
	<text transform="matrix(1 0 0 1 386.5837 100.1326)" class="st1 st2">alignment middle</text>
</g>
<g id="ASCII126">
	<polyline class="st0" points="426.2,107.5 426,107.7 425.5,107.9 425.3,108 425,108 424.6,108 424.2,107.9 423.7,107.7 
		423.2,107.4 422.9,107.2 422.5,107.1 422.2,107.1 421.9,107.1 421.6,107.2 421.3,107.4 420.9,107.7 	"/>
	<text transform="matrix(1 0 0 1 411.7808 104.3526)" class="st1 st2">alignment middle</text>
</g>
<g id="UTF16228">
	<circle class="st0" cx="18.9" cy="129.7" r="0.5"/>
	<circle class="st0" cx="21.2" cy="129.7" r="0.5"/>
	<polyline class="st0" points="18.1,132.9 18.5,132.3 19,132 19.5,131.8 19.9,131.7 20.2,131.7 20.6,131.8 21,131.9 21.4,132.2 
		21.7,132.5 21.8,132.8 21.9,133.3 21.9,136.5 21.9,136.9 22,137 22.1,137.2 22.3,137.3 22.6,137.3 23,137.3 	"/>
	<polyline class="st0" points="21.9,134.6 20.9,134.6 20,134.6 19.4,134.6 19.1,134.7 18.6,134.8 18.3,135.1 18.1,135.3 18,135.6 
		18,135.9 18,136.4 18,136.6 18.2,136.9 18.5,137.2 18.8,137.4 19.2,137.5 19.6,137.5 20.1,137.5 20.4,137.4 21,137 21.3,136.7 
		21.9,135.7 	"/>
</g>
<g id="UTF16196">
	<circle class="st0" cx="42.4" cy="127.6" r="0.5"/>
	<circle class="st0" cx="44.6" cy="127.6" r="0.5"/>
	<polyline class="st0" points="40.5,137.7 43.3,129.7 43.8,129.7 46.5,137.7 	"/>
	<line class="st0" x1="45.5" y1="134.8" x2="41.4" y2="134.8"/>
</g>
<g id="UTF16214">
	<circle class="st0" cx="89.9" cy="127.6" r="0.5"/>
	<polygon class="st0" points="91.1,137.4 90.8,137.4 90.2,137.3 89.8,137.2 89.3,137 88.8,136.5 88.5,136 88.2,135.5 88,134.9 
		87.9,134.3 87.9,133.6 87.9,133.2 87.9,132.9 87.9,132.2 88.1,131.6 88.3,131 88.7,130.6 89.1,130.1 89.6,129.8 90.4,129.6 
		91.1,129.6 91.1,129.5 91.5,129.6 92.3,129.8 92.8,130.1 93.3,130.6 93.6,131 93.9,131.6 94,132.2 94.1,132.9 94.1,133.2 
		94.1,133.6 94,134.3 93.9,134.9 93.7,135.5 93.5,136 93.2,136.5 92.6,137 92.2,137.2 91.7,137.3 91.2,137.4 	"/>
	<circle class="st0" cx="92.1" cy="127.6" r="0.5"/>
</g>
<g id="UTF16220">
	<circle class="st0" cx="134.3" cy="127.6" r="0.5"/>
	<polyline class="st0" points="137.9,129.3 137.9,134.8 137.8,135.5 137.7,135.9 137.5,136.4 137.2,136.8 136.7,137.2 136.3,137.3 
		135.7,137.4 135.4,137.4 135,137.4 134.4,137.3 134,137.2 133.5,136.8 133.2,136.4 133,135.9 132.9,135.5 132.8,134.8 132.8,129.3 
			"/>
	<circle class="st0" cx="136.5" cy="127.6" r="0.5"/>
</g>
<g id="UTF16252">
	<circle class="st0" cx="110.9" cy="129.7" r="0.5"/>
	<circle class="st0" cx="113.2" cy="129.7" r="0.5"/>
	<polyline class="st0" points="110.1,131.6 110.1,135.3 110.1,135.9 110.2,136.4 110.5,136.8 110.7,137.1 111.1,137.3 111.4,137.4 
		111.9,137.5 112.2,137.5 112.7,137.3 113,137 113.5,136.6 114,135.9 	"/>
	<line class="st0" x1="114" y1="137.7" x2="114" y2="131.5"/>
</g>
<g id="UTF16246">
	<circle class="st0" cx="63.1" cy="129.7" r="0.5"/>
	<circle class="st0" cx="65.4" cy="129.7" r="0.5"/>
	<polygon class="st0" points="64.3,137.4 64,137.4 63.6,137.3 63.3,137.2 63,137 62.5,136.7 62.3,136.4 62.2,136 62,135.6 
		61.9,135.2 61.9,134.7 61.9,134.4 61.9,134.2 61.9,133.7 62,133.2 62.2,132.8 62.5,132.5 62.8,132.2 63.2,132 63.8,131.8 
		64.3,131.8 64.3,131.8 64.6,131.8 65.2,132 65.6,132.2 65.9,132.5 66.2,132.8 66.4,133.2 66.5,133.7 66.5,134.2 66.5,134.4 
		66.5,134.7 66.5,135.2 66.4,135.6 66.2,136 66.1,136.4 65.8,136.7 65.4,137 65.1,137.2 64.8,137.3 	"/>
</g>
<g id="UTF16223">
	<polyline class="st0" points="160,137.7 160,132.4 160.1,131.1 160.2,130.5 160.3,130.1 160.7,129.6 161.1,129.2 161.7,129.1 
		162.2,129 162.7,129.1 163.3,129.4 163.7,129.7 163.9,130 164.2,130.6 164.3,131.1 164.3,131.5 164.3,131.9 163.6,131.9 163.1,132 
		162.8,132.1 162.3,132.4 162.2,132.8 162.1,133.1 162.2,133.6 162.4,134 162.7,134.3 163.1,134.5 163.7,134.6 164.3,134.8 
		164.6,135 164.9,135.4 165.1,135.8 165.1,136.3 165,136.7 164.6,137.1 164.2,137.4 163.6,137.5 163,137.5 162.4,137.4 162,137 
		161.6,136.6 	"/>
	<line class="st0" x1="158.6" y1="132" x2="160" y2="132"/>
</g>
<text transform="matrix(1 0 0 1 -27.6703 -24.8353)" style="font-family:'IBMPlexSans-Regular'; font-size:11px;">//!“#$%&amp;‘()*+,-./0123456789:;&lt;=&gt;?@ABCDEFGHIJKLMNOPQRSTUVWXYZ[ \]^_`abcdefghijklmnopqrstuvwxyz{|}~äÄöÖüÜß</text>
<rect x="-34.9" y="-32.7" class="st3" width="647.2" height="8"/>
</svg>
